<svg width="229" height="291" viewBox="0 0 229 291" fill="none" xmlns="http://www.w3.org/2000/svg">
<path d="M229 291L226.163 285.972L223.227 290.943L229 291ZM0.500767 1.02768C0.636485 3.47556 0.905738 6.09481 1.30902 8.87276L2.29864 8.72909C1.89906 5.97658 1.63311 3.387 1.49923 0.972321L0.500767 1.02768ZM4.55023 24.4301C5.80493 29.2059 7.34608 34.2755 9.17654 39.6011L10.1222 39.2761C8.29902 33.9716 6.76524 28.9256 5.51741 24.176L4.55023 24.4301ZM14.7565 54.4098C16.6744 59.1078 18.7873 63.9547 21.0968 68.9298L22.0038 68.5087C19.7007 63.5473 17.5941 58.7148 15.6823 54.0318L14.7565 54.4098ZM28.0772 83.1758C30.4268 87.7353 32.9291 92.3788 35.5852 97.0926L36.4564 96.6017C33.8063 91.8986 31.3099 87.266 28.9661 82.7177L28.0772 83.1758ZM43.6039 110.757C46.3017 115.178 49.1291 119.646 52.0869 124.152L52.9229 123.603C49.9711 119.107 47.1496 114.647 44.4575 110.236L43.6039 110.757ZM60.9709 137.228C63.9576 141.478 67.058 145.752 70.2729 150.04L71.0731 149.441C67.8643 145.16 64.7699 140.895 61.7891 136.653L60.9709 137.228ZM79.9692 162.575C83.2229 166.653 86.5798 170.737 90.0404 174.82L90.8032 174.173C87.349 170.098 83.9984 166.022 80.7508 161.952L79.9692 162.575ZM100.443 186.732C103.933 190.611 107.517 194.483 111.196 198.34L111.92 197.65C108.247 193.799 104.67 189.935 101.187 186.063L100.443 186.732ZM122.287 209.633C126.004 213.309 129.809 216.966 133.704 220.599L134.386 219.868C130.499 216.242 126.7 212.591 122.99 208.922L122.287 209.633ZM145.437 231.229C149.367 234.686 153.38 238.115 157.476 241.512L158.115 240.742C154.026 237.352 150.02 233.929 146.098 230.479L145.437 231.229ZM169.812 251.437C173.94 254.66 178.148 257.847 182.434 260.995L183.026 260.189C178.748 257.047 174.548 253.866 170.428 250.649L169.812 251.437ZM195.333 270.175C199.646 273.15 204.034 276.083 208.498 278.969L209.041 278.13C204.586 275.248 200.206 272.321 195.901 269.352L195.333 270.175ZM221.918 287.368C222.898 287.961 223.882 288.552 224.869 289.141L225.381 288.282C224.396 287.694 223.414 287.104 222.436 286.512L221.918 287.368ZM229 291L223.359 280.925L217.454 290.848L229 291ZM0.00153345 1.05536C0.138172 3.51984 0.409079 6.15393 0.814205 8.94459L2.79346 8.65726C2.39571 5.91746 2.13142 3.34272 1.99847 0.944642L0.00153345 1.05536ZM4.06664 24.5572C5.32478 29.346 6.86961 34.4275 8.70369 39.7637L10.5951 39.1136C8.77549 33.8196 7.24539 28.7855 6.001 24.049L4.06664 24.5572ZM14.2936 54.5988C16.2146 59.3043 18.3306 64.1584 20.6433 69.1403L22.4573 68.2982C20.1574 63.3436 18.0539 58.5183 16.1452 53.8429L14.2936 54.5988ZM27.6327 83.4048C29.9852 87.9699 32.4905 92.6189 35.1496 97.3381L36.892 96.3563C34.2449 91.6585 31.7515 87.0313 29.4105 82.4886L27.6327 83.4048ZM43.1771 111.017C45.8778 115.443 48.7081 119.916 51.6689 124.427L53.3409 123.329C50.3921 118.837 47.5735 114.382 44.8843 109.975L43.1771 111.017ZM60.5618 137.515C63.5515 141.77 66.6549 146.048 69.8729 150.34L71.4731 149.141C68.2675 144.865 65.1761 140.603 62.1982 136.365L60.5618 137.515ZM79.5783 162.887C82.8351 166.969 86.1951 171.057 89.659 175.143L91.1846 173.85C87.7337 169.779 84.3862 165.706 81.1417 161.64L79.5783 162.887ZM100.072 187.066C103.564 190.949 107.152 194.824 110.834 198.685L112.282 197.305C108.613 193.458 105.038 189.597 101.559 185.729L100.072 187.066ZM121.935 209.988C125.656 213.668 129.465 217.329 133.363 220.965L134.727 219.503C130.843 215.88 127.048 212.232 123.342 208.566L121.935 209.988ZM145.107 231.605C149.04 235.065 153.057 238.497 157.157 241.897L158.434 240.357C154.348 236.97 150.347 233.55 146.428 230.103L145.107 231.605ZM169.505 251.831C173.637 255.057 177.848 258.247 182.138 261.398L183.322 259.786C179.047 256.647 174.852 253.469 170.735 250.255L169.505 251.831ZM195.049 270.587C199.366 273.564 203.758 276.5 208.226 279.389L209.312 277.71C204.861 274.831 200.486 271.907 196.185 268.941L195.049 270.587Z" fill="#61D1AD"/>
</svg>
