<svg width="229" height="291" viewBox="0 0 229 291" fill="none" xmlns="http://www.w3.org/2000/svg">
<path d="M0 291L2.83691 285.972L5.77322 290.943L0 291ZM228.499 1.02768C228.364 3.47556 228.094 6.09481 227.691 8.87276L226.701 8.72909C227.101 5.97658 227.367 3.387 227.501 0.972321L228.499 1.02768ZM224.45 24.4301C223.195 29.2059 221.654 34.2755 219.823 39.6011L218.878 39.2761C220.701 33.9716 222.235 28.9256 223.483 24.176L224.45 24.4301ZM214.243 54.4098C212.326 59.1078 210.213 63.9547 207.903 68.9298L206.996 68.5087C209.299 63.5473 211.406 58.7148 213.318 54.0318L214.243 54.4098ZM200.923 83.1758C198.573 87.7353 196.071 92.3788 193.415 97.0926L192.544 96.6017C195.194 91.8986 197.69 87.266 200.034 82.7177L200.923 83.1758ZM185.396 110.757C182.698 115.178 179.871 119.646 176.913 124.152L176.077 123.603C179.029 119.107 181.85 114.647 184.542 110.236L185.396 110.757ZM168.029 137.228C165.042 141.478 161.942 145.752 158.727 150.04L157.927 149.441C161.136 145.16 164.23 140.895 167.211 136.653L168.029 137.228ZM149.031 162.575C145.777 166.653 142.42 170.737 138.96 174.82L138.197 174.173C141.651 170.098 145.002 166.022 148.249 161.952L149.031 162.575ZM128.557 186.732C125.067 190.611 121.483 194.483 117.804 198.34L117.08 197.65C120.753 193.799 124.33 189.935 127.813 186.063L128.557 186.732ZM106.713 209.633C102.996 213.309 99.1906 216.966 95.2961 220.599L94.6139 219.868C98.5013 216.242 102.3 212.591 106.01 208.922L106.713 209.633ZM83.5629 231.229C79.6333 234.686 75.6203 238.115 71.5235 241.512L70.8853 240.742C74.9745 237.352 78.98 233.929 82.9024 230.479L83.5629 231.229ZM59.1878 251.437C55.0596 254.66 50.8523 257.847 46.5657 260.995L45.9738 260.189C50.2525 257.047 54.4519 253.866 58.5725 250.649L59.1878 251.437ZM33.667 270.175C29.354 273.15 24.9658 276.083 20.5021 278.969L19.9591 278.13C24.4144 275.248 28.7943 272.321 33.0993 269.352L33.667 270.175ZM7.08167 287.368C6.10153 287.961 5.11797 288.552 4.13098 289.141L3.61874 288.282C4.60387 287.694 5.58559 287.104 6.56387 286.512L7.08167 287.368ZM0 291L5.64116 280.925L11.546 290.848L0 291ZM228.998 1.05536C228.862 3.51984 228.591 6.15393 228.186 8.94459L226.207 8.65726C226.604 5.91746 226.869 3.34272 227.002 0.944642L228.998 1.05536ZM224.933 24.5572C223.675 29.346 222.13 34.4275 220.296 39.7637L218.405 39.1136C220.225 33.8196 221.755 28.7855 222.999 24.049L224.933 24.5572ZM214.706 54.5988C212.785 59.3043 210.669 64.1584 208.357 69.1403L206.543 68.2982C208.843 63.3436 210.946 58.5183 212.855 53.8429L214.706 54.5988ZM201.367 83.4048C199.015 87.9699 196.51 92.6189 193.85 97.3381L192.108 96.3563C194.755 91.6585 197.248 87.0313 199.589 82.4886L201.367 83.4048ZM185.823 111.017C183.122 115.443 180.292 119.916 177.331 124.427L175.659 123.329C178.608 118.837 181.426 114.382 184.116 109.975L185.823 111.017ZM168.438 137.515C165.449 141.77 162.345 146.048 159.127 150.34L157.527 149.141C160.732 144.865 163.824 140.603 166.802 136.365L168.438 137.515ZM149.422 162.887C146.165 166.969 142.805 171.057 139.341 175.143L137.815 173.85C141.266 169.779 144.614 165.706 147.858 161.64L149.422 162.887ZM128.928 187.066C125.436 190.949 121.848 194.824 118.166 198.685L116.718 197.305C120.387 193.458 123.962 189.597 127.441 185.729L128.928 187.066ZM107.065 209.988C103.344 213.668 99.5352 217.329 95.6372 220.965L94.2729 219.503C98.1566 215.88 101.952 212.232 105.658 208.566L107.065 209.988ZM83.8931 231.605C79.9599 235.065 75.9432 238.497 71.8426 241.897L70.5661 240.357C74.6515 236.97 78.6534 233.55 82.5721 230.103L83.8931 231.605ZM59.4955 251.831C55.3634 255.057 51.1522 258.247 46.8616 261.398L45.6779 259.786C49.9525 256.647 54.148 253.469 58.2648 250.255L59.4955 251.831ZM33.9509 270.587C29.6338 273.564 25.2415 276.5 20.7737 279.389L19.6876 277.71C24.1387 274.831 28.5145 271.907 32.8154 268.941L33.9509 270.587Z" fill="#61D1AD"/>
</svg>
