<svg width="96" height="262" viewBox="0 0 96 262" fill="none" xmlns="http://www.w3.org/2000/svg">
<path d="M96 262L94.2766 256.49L90.3662 260.737L96 262ZM0.500867 1.02944C0.646388 3.49691 0.838695 6.09963 1.07745 8.8261L2.07364 8.73886C1.83563 6.02092 1.64404 3.42769 1.49913 0.970563L0.500867 1.02944ZM2.78589 24.4491C3.42183 29.3925 4.17232 34.5946 5.03615 40.0104L6.02367 39.8529C5.16132 34.4464 4.41229 29.2543 3.77772 24.3215L2.78589 24.4491ZM7.71422 55.5028C8.64725 60.5265 9.66538 65.6807 10.7678 70.9357L11.7465 70.7304C10.6456 65.4829 9.62902 60.3362 8.69741 55.3202L7.71422 55.5028ZM14.1643 86.2748C15.337 91.3071 16.5817 96.4016 17.8979 101.535L18.8666 101.286C17.5522 96.1605 16.3093 91.0731 15.1382 86.0479L14.1643 86.2748ZM21.9751 116.723C23.3835 121.741 24.8583 126.772 26.3989 131.797L27.355 131.504C25.8168 126.487 24.3442 121.463 22.9379 116.453L21.9751 116.723ZM31.1968 146.765C32.8651 151.745 34.5985 156.697 36.3964 161.599L37.3352 161.254C35.5407 156.362 33.8105 151.419 32.1451 146.448L31.1968 146.765ZM42.0399 176.273C44.0182 181.177 46.064 186.006 48.1767 190.737L49.0898 190.329C46.9824 185.611 44.9413 180.793 42.9673 175.899L42.0399 176.273ZM54.8948 204.97C57.28 209.745 59.7399 214.384 62.2739 218.857L63.144 218.364C60.6192 213.907 58.1675 209.284 55.7894 204.523L54.8948 204.97ZM70.4432 232.282C73.4047 236.798 76.4558 241.079 79.5957 245.088L80.383 244.472C77.2622 240.487 74.2273 236.229 71.2794 231.734L70.4432 232.282ZM89.9547 256.952C90.7458 257.757 91.5419 258.544 92.343 259.313L93.0355 258.591C92.2415 257.829 91.4523 257.049 90.6677 256.251L89.9547 256.952ZM96 262L92.7202 250.929L84.772 259.305L96 262ZM0.00173455 1.05887C0.14756 3.53151 0.340228 6.13899 0.579357 8.86972L2.57173 8.69525C2.3341 5.98157 2.14287 3.39309 1.99827 0.941126L0.00173455 1.05887ZM2.28998 24.5129C2.9266 29.4616 3.67781 34.6687 4.54239 40.0892L6.51743 39.7741C5.65582 34.3723 4.90752 29.1852 4.27363 24.2577L2.28998 24.5129ZM7.22263 55.5941C8.15637 60.6216 9.17525 65.7796 10.2785 71.0383L12.2359 70.6277C11.1358 65.3839 10.1199 60.2411 9.189 55.2289L7.22263 55.5941ZM13.6774 86.3883C14.8508 91.424 16.0965 96.5222 17.4136 101.659L19.3509 101.162C18.0375 96.04 16.7954 90.9561 15.6252 85.9344L13.6774 86.3883ZM21.4937 116.858C22.9032 121.879 24.3791 126.915 25.9209 131.943L27.833 131.357C26.296 126.344 24.8246 121.324 23.4193 116.318L21.4937 116.858ZM30.7227 146.924C32.3924 151.908 34.1274 156.865 35.927 161.771L37.8047 161.082C36.0119 156.194 34.2832 151.256 32.6192 146.289L30.7227 146.924ZM41.5762 176.46C43.5566 181.37 45.6048 186.204 47.7202 190.941L49.5463 190.125C47.4416 185.413 45.4029 180.6 43.431 175.712L41.5762 176.46ZM54.4475 205.193C56.8362 209.976 59.3002 214.622 61.8389 219.103L63.579 218.117C61.0589 213.669 58.6112 209.054 56.2367 204.3L54.4475 205.193ZM70.0251 232.556C72.9934 237.083 76.0527 241.375 79.2021 245.397L80.7766 244.163C77.6653 240.191 74.6386 235.944 71.6976 231.459L70.0251 232.556Z" fill="#61D1AD"/>
</svg>
