<svg width="1434" height="133" viewBox="0 0 1434 133" fill="none" xmlns="http://www.w3.org/2000/svg">
<rect x="-8" y="38" width="1442" height="57" fill="#61D1AD"/>
<circle cx="142.5" cy="66.5" r="66.5" fill="#61D1AD"/>
<path d="M224.149 63.75H222.168C222.05 63.18 221.845 62.6793 221.552 62.2479C221.265 61.8164 220.913 61.4542 220.498 61.1612C220.088 60.8629 219.632 60.6392 219.131 60.4901C218.631 60.3409 218.109 60.2663 217.565 60.2663C216.575 60.2663 215.677 60.5167 214.873 61.0174C214.074 61.5181 213.437 62.2559 212.963 63.2306C212.494 64.2054 212.26 65.4013 212.26 66.8182C212.26 68.2351 212.494 69.4309 212.963 70.4057C213.437 71.3805 214.074 72.1183 214.873 72.619C215.677 73.1197 216.575 73.37 217.565 73.37C218.109 73.37 218.631 73.2955 219.131 73.1463C219.632 72.9972 220.088 72.7761 220.498 72.4831C220.913 72.1848 221.265 71.82 221.552 71.3885C221.845 70.9517 222.05 70.451 222.168 69.8864H224.149C224 70.7227 223.728 71.4711 223.334 72.1316C222.94 72.7921 222.45 73.354 221.864 73.8175C221.278 74.2756 220.62 74.6245 219.89 74.8642C219.166 75.1039 218.391 75.2237 217.565 75.2237C216.17 75.2237 214.929 74.8828 213.842 74.201C212.755 73.5192 211.9 72.5497 211.277 71.2926C210.654 70.0355 210.342 68.544 210.342 66.8182C210.342 65.0923 210.654 63.6009 211.277 62.3438C211.9 61.0866 212.755 60.1172 213.842 59.4354C214.929 58.7536 216.17 58.4126 217.565 58.4126C218.391 58.4126 219.166 58.5325 219.89 58.7722C220.62 59.0119 221.278 59.3635 221.864 59.8269C222.45 60.285 222.94 60.8443 223.334 61.5048C223.728 62.16 224 62.9084 224.149 63.75ZM232.241 75.2557C231.059 75.2557 230.038 74.9947 229.181 74.4727C228.329 73.9453 227.671 73.2102 227.207 72.2674C226.749 71.3192 226.52 70.2166 226.52 68.9595C226.52 67.7024 226.749 66.5945 227.207 65.6357C227.671 64.6715 228.315 63.9205 229.141 63.3825C229.972 62.8391 230.941 62.5675 232.049 62.5675C232.689 62.5675 233.32 62.674 233.943 62.8871C234.566 63.1001 235.133 63.4464 235.645 63.9258C236.156 64.3999 236.564 65.0284 236.867 65.8114C237.171 66.5945 237.323 67.5586 237.323 68.7038V69.5028H227.863V67.8729H235.405C235.405 67.1804 235.267 66.5625 234.99 66.0192C234.718 65.4759 234.329 65.0471 233.823 64.7328C233.322 64.4185 232.731 64.2614 232.049 64.2614C231.298 64.2614 230.648 64.4478 230.1 64.8207C229.556 65.1882 229.138 65.6676 228.845 66.2589C228.552 66.8501 228.406 67.484 228.406 68.1605V69.2472C228.406 70.174 228.566 70.9597 228.885 71.6042C229.21 72.2434 229.66 72.7308 230.236 73.0664C230.811 73.3967 231.479 73.5618 232.241 73.5618C232.736 73.5618 233.184 73.4925 233.583 73.354C233.988 73.2102 234.337 72.9972 234.63 72.7148C234.923 72.4272 235.149 72.0703 235.309 71.6442L237.131 72.1555C236.939 72.7734 236.617 73.3168 236.164 73.7855C235.711 74.2489 235.152 74.6112 234.486 74.8722C233.82 75.1278 233.072 75.2557 232.241 75.2557ZM240.191 75V62.7273H242.013V64.581H242.141C242.364 63.9737 242.769 63.481 243.355 63.1028C243.941 62.7246 244.602 62.5355 245.337 62.5355C245.475 62.5355 245.648 62.5382 245.856 62.5435C246.064 62.5488 246.221 62.5568 246.328 62.5675V64.4851C246.264 64.4691 246.117 64.4451 245.888 64.4132C245.664 64.3759 245.427 64.3572 245.177 64.3572C244.58 64.3572 244.048 64.4824 243.579 64.7328C243.116 64.9778 242.748 65.3187 242.476 65.7555C242.21 66.187 242.077 66.6797 242.077 67.2337V75H240.191ZM254.669 62.7273V64.3253H248.309V62.7273H254.669ZM250.163 59.7869H252.048V71.4844C252.048 72.017 252.126 72.4165 252.28 72.6829C252.44 72.9439 252.642 73.1197 252.887 73.2102C253.138 73.2955 253.401 73.3381 253.678 73.3381C253.886 73.3381 254.057 73.3274 254.19 73.3061C254.323 73.2795 254.429 73.2582 254.509 73.2422L254.893 74.9361C254.765 74.984 254.587 75.032 254.358 75.0799C254.129 75.1332 253.838 75.1598 253.487 75.1598C252.954 75.1598 252.432 75.0453 251.921 74.8162C251.415 74.5872 250.994 74.2383 250.658 73.7695C250.328 73.3008 250.163 72.7095 250.163 71.9957V59.7869ZM258.72 79.6023C258.401 79.6023 258.116 79.5756 257.865 79.5224C257.615 79.4744 257.442 79.4265 257.346 79.3786L257.825 77.7166C258.283 77.8338 258.688 77.8764 259.04 77.8445C259.391 77.8125 259.703 77.6554 259.975 77.373C260.252 77.0961 260.505 76.646 260.734 76.0227L261.085 75.0639L256.547 62.7273H258.592L261.98 72.5071H262.108L265.496 62.7273H267.541L262.332 76.7898C262.097 77.4237 261.807 77.9483 261.461 78.3638C261.114 78.7846 260.712 79.0962 260.254 79.2987C259.801 79.5011 259.29 79.6023 258.72 79.6023ZM275.495 62.7273V64.3253H268.879V62.7273H275.495ZM270.861 75V61.0334C270.861 60.3303 271.026 59.7443 271.356 59.2756C271.687 58.8068 272.115 58.4553 272.643 58.2209C273.17 57.9865 273.727 57.8693 274.313 57.8693C274.776 57.8693 275.154 57.9066 275.447 57.9812C275.74 58.0558 275.959 58.125 276.102 58.1889L275.559 59.8189C275.463 59.7869 275.33 59.747 275.16 59.699C274.995 59.6511 274.776 59.6271 274.504 59.6271C273.881 59.6271 273.431 59.7843 273.154 60.0985C272.883 60.4128 272.747 60.8736 272.747 61.4808V75H270.861ZM278.138 75V62.7273H280.024V75H278.138ZM279.097 60.6818C278.729 60.6818 278.412 60.5566 278.146 60.3063C277.885 60.0559 277.754 59.755 277.754 59.4034C277.754 59.0518 277.885 58.7509 278.146 58.5005C278.412 58.2502 278.729 58.125 279.097 58.125C279.464 58.125 279.779 58.2502 280.04 58.5005C280.306 58.7509 280.439 59.0518 280.439 59.4034C280.439 59.755 280.306 60.0559 280.04 60.3063C279.779 60.5566 279.464 60.6818 279.097 60.6818ZM285.235 70.5256L285.203 68.1925H285.587L290.956 62.7273H293.289L287.568 68.5121H287.408L285.235 70.5256ZM283.477 75V58.6364H285.363V75H283.477ZM291.276 75L286.482 68.9276L287.824 67.6172L293.673 75H291.276ZM299.328 75.2876C298.55 75.2876 297.844 75.1412 297.21 74.8482C296.576 74.5499 296.073 74.1211 295.7 73.5618C295.327 72.9972 295.141 72.3153 295.141 71.5163C295.141 70.8132 295.279 70.2433 295.556 69.8065C295.833 69.3643 296.203 69.0181 296.667 68.7678C297.13 68.5174 297.642 68.331 298.201 68.2085C298.766 68.0806 299.333 67.9794 299.903 67.9048C300.649 67.8089 301.253 67.737 301.717 67.6891C302.185 67.6358 302.526 67.5479 302.739 67.4254C302.958 67.3029 303.067 67.0898 303.067 66.7862V66.7223C303.067 65.9339 302.851 65.3214 302.42 64.8846C301.994 64.4478 301.346 64.2294 300.478 64.2294C299.578 64.2294 298.872 64.4265 298.361 64.8207C297.849 65.2148 297.49 65.6357 297.282 66.0831L295.492 65.4439C295.812 64.6982 296.238 64.1175 296.771 63.7021C297.309 63.2812 297.895 62.9883 298.529 62.8232C299.168 62.6527 299.796 62.5675 300.414 62.5675C300.808 62.5675 301.261 62.6154 301.773 62.7113C302.289 62.8018 302.787 62.9909 303.267 63.2786C303.751 63.5662 304.154 64.0004 304.473 64.581C304.793 65.1616 304.953 65.9393 304.953 66.9141V75H303.067V73.3381H302.971C302.843 73.6044 302.63 73.8894 302.332 74.193C302.034 74.4966 301.637 74.755 301.141 74.968C300.646 75.1811 300.041 75.2876 299.328 75.2876ZM299.615 73.5938C300.361 73.5938 300.99 73.4473 301.501 73.1543C302.018 72.8613 302.406 72.4831 302.667 72.0197C302.934 71.5563 303.067 71.0689 303.067 70.5575V68.8317C302.987 68.9276 302.811 69.0154 302.54 69.0953C302.273 69.1699 301.964 69.2365 301.613 69.2951C301.267 69.3484 300.928 69.3963 300.598 69.4389C300.273 69.4762 300.009 69.5082 299.807 69.5348C299.317 69.5987 298.859 69.7026 298.433 69.8464C298.012 69.9849 297.671 70.1953 297.41 70.4776C297.154 70.7546 297.026 71.1328 297.026 71.6122C297.026 72.2674 297.269 72.7628 297.754 73.0984C298.244 73.4286 298.864 73.5938 299.615 73.5938ZM313.732 62.7273V64.3253H307.372V62.7273H313.732ZM309.225 59.7869H311.111V71.4844C311.111 72.017 311.188 72.4165 311.343 72.6829C311.502 72.9439 311.705 73.1197 311.95 73.2102C312.2 73.2955 312.464 73.3381 312.741 73.3381C312.949 73.3381 313.119 73.3274 313.252 73.3061C313.385 73.2795 313.492 73.2582 313.572 73.2422L313.955 74.9361C313.828 74.984 313.649 75.032 313.42 75.0799C313.191 75.1332 312.901 75.1598 312.549 75.1598C312.016 75.1598 311.494 75.0453 310.983 74.8162C310.477 74.5872 310.056 74.2383 309.721 73.7695C309.39 73.3008 309.225 72.7095 309.225 71.9957V59.7869ZM317.783 79.6023C317.463 79.6023 317.178 79.5756 316.928 79.5224C316.677 79.4744 316.504 79.4265 316.408 79.3786L316.888 77.7166C317.346 77.8338 317.751 77.8764 318.102 77.8445C318.454 77.8125 318.765 77.6554 319.037 77.373C319.314 77.0961 319.567 76.646 319.796 76.0227L320.148 75.0639L315.609 62.7273H317.655L321.043 72.5071H321.17L324.558 62.7273H326.604L321.394 76.7898C321.16 77.4237 320.869 77.9483 320.523 78.3638C320.177 78.7846 319.775 79.0962 319.317 79.2987C318.864 79.5011 318.353 79.6023 317.783 79.6023Z" fill="#191B1C"/>
<path d="M137.85 30.2C136.617 30.2 135.434 30.6846 134.562 31.5473C133.69 32.4099 133.2 33.58 133.2 34.8C133.2 36.0199 133.69 37.19 134.562 38.0526C135.434 38.9153 136.617 39.4 137.85 39.4H147.15C148.383 39.4 149.566 38.9153 150.438 38.0526C151.31 37.19 151.8 36.0199 151.8 34.8C151.8 33.58 151.31 32.4099 150.438 31.5473C149.566 30.6846 148.383 30.2 147.15 30.2H137.85Z" fill="black"/>
<path fill-rule="evenodd" clip-rule="evenodd" d="M114.6 44C114.6 41.5601 115.58 39.22 117.324 37.4947C119.068 35.7693 121.434 34.8 123.9 34.8C123.9 38.46 125.37 41.9701 127.986 44.5581C130.602 47.1461 134.15 48.6 137.85 48.6H147.15C150.85 48.6 154.398 47.1461 157.014 44.5581C159.63 41.9701 161.1 38.46 161.1 34.8C163.567 34.8 165.932 35.7693 167.676 37.4947C169.42 39.22 170.4 41.5601 170.4 44V94.6C170.4 97.04 169.42 99.3801 167.676 101.105C165.932 102.831 163.567 103.8 161.1 103.8H123.9C121.434 103.8 119.068 102.831 117.324 101.105C115.58 99.3801 114.6 97.04 114.6 94.6V44ZM159.738 70.2522C160.585 69.3847 161.053 68.2227 161.043 67.0166C161.032 65.8105 160.543 64.6568 159.681 63.8039C158.819 62.951 157.653 62.4672 156.433 62.4567C155.214 62.4463 154.04 62.9099 153.163 63.7478L137.85 78.8956L131.838 72.9478C130.961 72.1099 129.786 71.6463 128.567 71.6567C127.348 71.6672 126.181 72.151 125.319 73.0039C124.457 73.8568 123.968 75.0105 123.957 76.2166C123.947 77.4227 124.416 78.5847 125.263 79.4522L134.563 88.6522C135.435 89.5146 136.617 89.9991 137.85 89.9991C139.083 89.9991 140.266 89.5146 141.138 88.6522L159.738 70.2522V70.2522Z" fill="black"/>
</svg>
