<svg width="1440" height="133" viewBox="0 0 1440 133" fill="none" xmlns="http://www.w3.org/2000/svg">
<circle cx="149.5" cy="66.5" r="66.5" fill="#61D1AD"/>
<rect x="-1" y="38" width="1442" height="57" fill="#61D1AD"/>
<path fill-rule="evenodd" clip-rule="evenodd" d="M131.768 35.4112C134.824 35.1672 137.724 33.9654 140.057 31.9769C142.692 29.733 146.039 28.5006 149.5 28.5006C152.961 28.5006 156.308 29.733 158.943 31.9769C161.276 33.9654 164.176 35.1672 167.232 35.4112C170.682 35.687 173.922 37.1828 176.37 39.6305C178.817 42.0781 180.313 45.3176 180.589 48.7682C180.831 51.8224 182.033 54.7247 184.023 57.0569C186.267 59.6916 187.499 63.0392 187.499 66.4999C187.499 69.9607 186.267 73.3083 184.023 75.9429C182.035 78.2756 180.833 81.1762 180.589 84.2317C180.313 87.6822 178.817 90.9217 176.37 93.3694C173.922 95.8171 170.682 97.3129 167.232 97.5887C164.176 97.8326 161.276 99.0344 158.943 101.023C156.308 103.267 152.961 104.499 149.5 104.499C146.039 104.499 142.692 103.267 140.057 101.023C137.724 99.0344 134.824 97.8326 131.768 97.5887C128.318 97.3129 125.078 95.8171 122.631 93.3694C120.183 90.9217 118.687 87.6822 118.411 84.2317C118.167 81.1762 116.966 78.2756 114.977 75.9429C112.733 73.3083 111.501 69.9607 111.501 66.4999C111.501 63.0392 112.733 59.6916 114.977 57.0569C116.966 54.7243 118.167 51.8237 118.411 48.7682C118.687 45.3176 120.183 42.0781 122.631 39.6305C125.078 37.1828 128.318 35.687 131.768 35.4112ZM167.108 60.3582C167.974 59.4623 168.452 58.2625 168.442 57.017C168.431 55.7716 167.931 54.5802 167.05 53.6996C166.17 52.8189 164.978 52.3193 163.733 52.3085C162.488 52.2977 161.288 52.7764 160.392 53.6417L144.75 69.2834L138.608 63.1417C137.712 62.2764 136.513 61.7977 135.267 61.8085C134.022 61.8193 132.83 62.3189 131.95 63.1996C131.069 64.0802 130.569 65.2716 130.559 66.517C130.548 67.7625 131.027 68.9623 131.892 69.8582L141.392 79.3582C142.283 80.2487 143.491 80.7489 144.75 80.7489C146.01 80.7489 147.218 80.2487 148.108 79.3582L167.108 60.3582Z" fill="#191B1C"/>
<path d="M220.954 75L216.479 58.6364H218.493L221.913 71.9638H222.072L225.556 58.6364H227.793L231.277 71.9638H231.437L234.857 58.6364H236.87L232.396 75H230.35L226.739 61.9602H226.611L222.999 75H220.954ZM240.298 79.6023C239.978 79.6023 239.693 79.5756 239.443 79.5224C239.192 79.4744 239.019 79.4265 238.923 79.3786L239.403 77.7166C239.861 77.8338 240.266 77.8764 240.617 77.8445C240.969 77.8125 241.281 77.6554 241.552 77.373C241.829 77.0961 242.082 76.646 242.311 76.0227L242.663 75.0639L238.124 62.7273H240.17L243.558 72.5071H243.686L247.073 62.7273H249.119L243.909 76.7898C243.675 77.4237 243.385 77.9483 243.038 78.3638C242.692 78.7846 242.29 79.0962 241.832 79.2987C241.379 79.5011 240.868 79.6023 240.298 79.6023ZM253.366 70.5256L253.334 68.1925H253.717L259.086 62.7273H261.419L255.699 68.5121H255.539L253.366 70.5256ZM251.608 75V58.6364H253.493V75H251.608ZM259.406 75L254.612 68.9276L255.954 67.6172L261.803 75H259.406ZM272.54 65.4759L270.846 65.9553C270.739 65.6729 270.582 65.3986 270.374 65.1323C270.172 64.8606 269.895 64.6369 269.543 64.4611C269.192 64.2853 268.742 64.1974 268.193 64.1974C267.442 64.1974 266.816 64.3706 266.315 64.7168C265.82 65.0577 265.572 65.4918 265.572 66.0192C265.572 66.4879 265.743 66.8581 266.084 67.1298C266.425 67.4015 266.957 67.6278 267.682 67.8089L269.503 68.2564C270.601 68.5227 271.418 68.9302 271.956 69.4789C272.494 70.0222 272.763 70.7227 272.763 71.5803C272.763 72.2834 272.561 72.9119 272.156 73.4659C271.757 74.0199 271.197 74.4567 270.478 74.7763C269.759 75.0959 268.923 75.2557 267.969 75.2557C266.718 75.2557 265.682 74.984 264.861 74.4407C264.041 73.8974 263.522 73.1037 263.303 72.0597L265.093 71.6122C265.263 72.2727 265.586 72.7681 266.06 73.0984C266.539 73.4286 267.165 73.5938 267.937 73.5938C268.816 73.5938 269.514 73.4073 270.031 73.0344C270.553 72.6562 270.814 72.2035 270.814 71.6761C270.814 71.25 270.665 70.8931 270.366 70.6055C270.068 70.3125 269.61 70.0941 268.992 69.9503L266.947 69.4709C265.823 69.2045 264.997 68.7917 264.47 68.2324C263.948 67.6678 263.687 66.962 263.687 66.1151C263.687 65.4226 263.881 64.81 264.27 64.2773C264.664 63.7447 265.199 63.3265 265.876 63.0229C266.558 62.7193 267.33 62.5675 268.193 62.5675C269.408 62.5675 270.361 62.8338 271.053 63.3665C271.751 63.8991 272.247 64.6023 272.54 65.4759ZM275.25 75V73.5618L282.218 64.6129V64.4851H275.474V62.7273H284.647V64.2294L277.871 73.1143V73.2422H284.87V75H275.25ZM293.112 62.7273V64.3253H286.752V62.7273H293.112ZM288.606 59.7869H290.491V71.4844C290.491 72.017 290.569 72.4165 290.723 72.6829C290.883 72.9439 291.085 73.1197 291.33 73.2102C291.581 73.2955 291.844 73.3381 292.121 73.3381C292.329 73.3381 292.499 73.3274 292.633 73.3061C292.766 73.2795 292.872 73.2582 292.952 73.2422L293.336 74.9361C293.208 74.984 293.029 75.032 292.8 75.0799C292.571 75.1332 292.281 75.1598 291.93 75.1598C291.397 75.1598 290.875 75.0453 290.363 74.8162C289.857 74.5872 289.437 74.2383 289.101 73.7695C288.771 73.3008 288.606 72.7095 288.606 71.9957V59.7869ZM299.56 75.2876C298.782 75.2876 298.077 75.1412 297.443 74.8482C296.809 74.5499 296.305 74.1211 295.933 73.5618C295.56 72.9972 295.373 72.3153 295.373 71.5163C295.373 70.8132 295.512 70.2433 295.789 69.8065C296.066 69.3643 296.436 69.0181 296.899 68.7678C297.363 68.5174 297.874 68.331 298.433 68.2085C298.998 68.0806 299.565 67.9794 300.135 67.9048C300.881 67.8089 301.486 67.737 301.949 67.6891C302.418 67.6358 302.759 67.5479 302.972 67.4254C303.19 67.3029 303.299 67.0898 303.299 66.7862V66.7223C303.299 65.9339 303.084 65.3214 302.652 64.8846C302.226 64.4478 301.579 64.2294 300.711 64.2294C299.81 64.2294 299.105 64.4265 298.593 64.8207C298.082 65.2148 297.722 65.6357 297.515 66.0831L295.725 65.4439C296.044 64.6982 296.471 64.1175 297.003 63.7021C297.541 63.2812 298.127 62.9883 298.761 62.8232C299.4 62.6527 300.029 62.5675 300.647 62.5675C301.041 62.5675 301.494 62.6154 302.005 62.7113C302.522 62.8018 303.02 62.9909 303.499 63.2786C303.984 63.5662 304.386 64.0004 304.706 64.581C305.025 65.1616 305.185 65.9393 305.185 66.9141V75H303.299V73.3381H303.203C303.076 73.6044 302.863 73.8894 302.564 74.193C302.266 74.4966 301.869 74.755 301.374 74.968C300.878 75.1811 300.274 75.2876 299.56 75.2876ZM299.848 73.5938C300.593 73.5938 301.222 73.4473 301.733 73.1543C302.25 72.8613 302.639 72.4831 302.9 72.0197C303.166 71.5563 303.299 71.0689 303.299 70.5575V68.8317C303.219 68.9276 303.044 69.0154 302.772 69.0953C302.506 69.1699 302.197 69.2365 301.845 69.2951C301.499 69.3484 301.161 69.3963 300.83 69.4389C300.506 69.4762 300.242 69.5082 300.039 69.5348C299.549 69.5987 299.091 69.7026 298.665 69.8464C298.244 69.9849 297.903 70.1953 297.642 70.4776C297.387 70.7546 297.259 71.1328 297.259 71.6122C297.259 72.2674 297.501 72.7628 297.986 73.0984C298.476 73.4286 299.097 73.5938 299.848 73.5938ZM310.512 58.6364V75H308.627V58.6364H310.512ZM318.952 75.2557C317.801 75.2557 316.811 74.984 315.98 74.4407C315.149 73.8974 314.509 73.149 314.062 72.1955C313.615 71.242 313.391 70.1527 313.391 68.9276C313.391 67.6811 313.62 66.5811 314.078 65.6277C314.541 64.6689 315.186 63.9205 316.012 63.3825C316.843 62.8391 317.812 62.5675 318.92 62.5675C319.783 62.5675 320.561 62.7273 321.253 63.0469C321.945 63.3665 322.513 63.8139 322.955 64.3892C323.397 64.9645 323.671 65.6357 323.778 66.4027H321.892C321.748 65.8434 321.429 65.348 320.933 64.9165C320.443 64.4798 319.783 64.2614 318.952 64.2614C318.217 64.2614 317.572 64.4531 317.018 64.8366C316.47 65.2148 316.041 65.7502 315.732 66.4426C315.428 67.1298 315.276 67.9368 315.276 68.8636C315.276 69.8118 315.426 70.6374 315.724 71.3406C316.028 72.0437 316.454 72.5897 317.002 72.9785C317.556 73.3674 318.206 73.5618 318.952 73.5618C319.442 73.5618 319.887 73.4766 320.286 73.3061C320.686 73.1357 321.024 72.8906 321.301 72.571C321.578 72.2514 321.775 71.8679 321.892 71.4205H323.778C323.671 72.1449 323.408 72.7974 322.987 73.378C322.571 73.9533 322.02 74.4114 321.333 74.7523C320.651 75.0879 319.857 75.2557 318.952 75.2557ZM331.68 75.2557C330.498 75.2557 329.477 74.9947 328.62 74.4727C327.768 73.9453 327.11 73.2102 326.646 72.2674C326.188 71.3192 325.959 70.2166 325.959 68.9595C325.959 67.7024 326.188 66.5945 326.646 65.6357C327.11 64.6715 327.754 63.9205 328.58 63.3825C329.411 62.8391 330.38 62.5675 331.488 62.5675C332.127 62.5675 332.759 62.674 333.382 62.8871C334.005 63.1001 334.572 63.4464 335.084 63.9258C335.595 64.3999 336.003 65.0284 336.306 65.8114C336.61 66.5945 336.762 67.5586 336.762 68.7038V69.5028H327.301V67.8729H334.844C334.844 67.1804 334.706 66.5625 334.429 66.0192C334.157 65.4759 333.768 65.0471 333.262 64.7328C332.761 64.4185 332.17 64.2614 331.488 64.2614C330.737 64.2614 330.087 64.4478 329.539 64.8207C328.995 65.1882 328.577 65.6676 328.284 66.2589C327.991 66.8501 327.845 67.484 327.845 68.1605V69.2472C327.845 70.174 328.005 70.9597 328.324 71.6042C328.649 72.2434 329.099 72.7308 329.675 73.0664C330.25 73.3967 330.918 73.5618 331.68 73.5618C332.175 73.5618 332.623 73.4925 333.022 73.354C333.427 73.2102 333.776 72.9972 334.069 72.7148C334.362 72.4272 334.588 72.0703 334.748 71.6442L336.57 72.1555C336.378 72.7734 336.056 73.3168 335.603 73.7855C335.15 74.2489 334.591 74.6112 333.925 74.8722C333.259 75.1278 332.511 75.2557 331.68 75.2557ZM341.516 67.6172V75H339.63V62.7273H341.452V64.6449H341.612C341.899 64.0217 342.336 63.521 342.922 63.1428C343.508 62.7592 344.264 62.5675 345.191 62.5675C346.022 62.5675 346.749 62.7379 347.373 63.0788C347.996 63.4144 348.48 63.9258 348.827 64.6129C349.173 65.2947 349.346 66.1577 349.346 67.2017V75H347.46V67.3295C347.46 66.3654 347.21 65.6143 346.709 65.0763C346.209 64.533 345.521 64.2614 344.648 64.2614C344.046 64.2614 343.508 64.3919 343.034 64.6529C342.565 64.9139 342.195 65.2947 341.923 65.7955C341.652 66.2962 341.516 66.9034 341.516 67.6172ZM352.792 75V62.7273H354.677V75H352.792ZM353.751 60.6818C353.383 60.6818 353.066 60.5566 352.8 60.3063C352.539 60.0559 352.408 59.755 352.408 59.4034C352.408 59.0518 352.539 58.7509 352.8 58.5005C353.066 58.2502 353.383 58.125 353.751 58.125C354.118 58.125 354.432 58.2502 354.693 58.5005C354.96 58.7509 355.093 59.0518 355.093 59.4034C355.093 59.755 354.96 60.0559 354.693 60.3063C354.432 60.5566 354.118 60.6818 353.751 60.6818ZM363.277 75.2557C362.094 75.2557 361.074 74.9947 360.217 74.4727C359.364 73.9453 358.706 73.2102 358.243 72.2674C357.785 71.3192 357.556 70.2166 357.556 68.9595C357.556 67.7024 357.785 66.5945 358.243 65.6357C358.706 64.6715 359.351 63.9205 360.177 63.3825C361.008 62.8391 361.977 62.5675 363.085 62.5675C363.724 62.5675 364.355 62.674 364.979 62.8871C365.602 63.1001 366.169 63.4464 366.68 63.9258C367.192 64.3999 367.599 65.0284 367.903 65.8114C368.207 66.5945 368.358 67.5586 368.358 68.7038V69.5028H358.898V67.8729H366.441C366.441 67.1804 366.302 66.5625 366.025 66.0192C365.754 65.4759 365.365 65.0471 364.859 64.7328C364.358 64.4185 363.767 64.2614 363.085 64.2614C362.334 64.2614 361.684 64.4478 361.135 64.8207C360.592 65.1882 360.174 65.6676 359.881 66.2589C359.588 66.8501 359.441 67.484 359.441 68.1605V69.2472C359.441 70.174 359.601 70.9597 359.921 71.6042C360.246 72.2434 360.696 72.7308 361.271 73.0664C361.847 73.3967 362.515 73.5618 363.277 73.5618C363.772 73.5618 364.22 73.4925 364.619 73.354C365.024 73.2102 365.373 72.9972 365.666 72.7148C365.959 72.4272 366.185 72.0703 366.345 71.6442L368.167 72.1555C367.975 72.7734 367.653 73.3168 367.2 73.7855C366.747 74.2489 366.188 74.6112 365.522 74.8722C364.856 75.1278 364.108 75.2557 363.277 75.2557ZM377.555 75V62.7273H379.441V75H377.555ZM378.514 60.6818C378.146 60.6818 377.829 60.5566 377.563 60.3063C377.302 60.0559 377.171 59.755 377.171 59.4034C377.171 59.0518 377.302 58.7509 377.563 58.5005C377.829 58.2502 378.146 58.125 378.514 58.125C378.881 58.125 379.196 58.2502 379.457 58.5005C379.723 58.7509 379.856 59.0518 379.856 59.4034C379.856 59.755 379.723 60.0559 379.457 60.3063C379.196 60.5566 378.881 60.6818 378.514 60.6818ZM396.957 69.9822V62.7273H398.842V75H396.957V72.9226H396.829C396.541 73.5458 396.094 74.0758 395.487 74.5126C394.879 74.9441 394.112 75.1598 393.186 75.1598C392.418 75.1598 391.737 74.992 391.14 74.6564C390.543 74.3155 390.075 73.8042 389.734 73.1223C389.393 72.4352 389.222 71.5696 389.222 70.5256V62.7273H391.108V70.3977C391.108 71.2926 391.358 72.0064 391.859 72.5391C392.365 73.0717 393.01 73.3381 393.793 73.3381C394.261 73.3381 394.738 73.2182 395.223 72.9785C395.713 72.7388 396.123 72.3713 396.453 71.8759C396.789 71.3805 396.957 70.7493 396.957 69.9822ZM402.296 75V62.7273H404.118V64.6449H404.278C404.533 63.9897 404.946 63.481 405.516 63.1188C406.086 62.7512 406.771 62.5675 407.57 62.5675C408.379 62.5675 409.053 62.7512 409.591 63.1188C410.134 63.481 410.558 63.9897 410.862 64.6449H410.989C411.304 64.011 411.775 63.5076 412.404 63.1348C413.032 62.7566 413.786 62.5675 414.665 62.5675C415.762 62.5675 416.66 62.911 417.357 63.5982C418.055 64.28 418.404 65.3427 418.404 66.7862V75H416.518V66.7862C416.518 65.8807 416.271 65.2335 415.775 64.8446C415.28 64.4558 414.697 64.2614 414.026 64.2614C413.163 64.2614 412.494 64.5224 412.02 65.0444C411.546 65.5611 411.309 66.2163 411.309 67.0099V75H409.391V66.5945C409.391 65.8967 409.165 65.3347 408.712 64.9086C408.259 64.4771 407.676 64.2614 406.962 64.2614C406.472 64.2614 406.014 64.3919 405.588 64.6529C405.167 64.9139 404.826 65.2761 404.565 65.7395C404.31 66.1976 404.182 66.7276 404.182 67.3295V75H402.296ZM421.852 75V62.7273H423.737V75H421.852ZM422.811 60.6818C422.443 60.6818 422.126 60.5566 421.86 60.3063C421.599 60.0559 421.468 59.755 421.468 59.4034C421.468 59.0518 421.599 58.7509 421.86 58.5005C422.126 58.2502 422.443 58.125 422.811 58.125C423.178 58.125 423.492 58.2502 423.753 58.5005C424.02 58.7509 424.153 59.0518 424.153 59.4034C424.153 59.755 424.02 60.0559 423.753 60.3063C423.492 60.5566 423.178 60.6818 422.811 60.6818ZM432.337 75.2557C431.154 75.2557 430.134 74.9947 429.277 74.4727C428.424 73.9453 427.766 73.2102 427.303 72.2674C426.845 71.3192 426.616 70.2166 426.616 68.9595C426.616 67.7024 426.845 66.5945 427.303 65.6357C427.766 64.6715 428.411 63.9205 429.237 63.3825C430.068 62.8391 431.037 62.5675 432.145 62.5675C432.784 62.5675 433.415 62.674 434.039 62.8871C434.662 63.1001 435.229 63.4464 435.741 63.9258C436.252 64.3999 436.659 65.0284 436.963 65.8114C437.267 66.5945 437.418 67.5586 437.418 68.7038V69.5028H427.958V67.8729H435.501C435.501 67.1804 435.362 66.5625 435.085 66.0192C434.814 65.4759 434.425 65.0471 433.919 64.7328C433.418 64.4185 432.827 64.2614 432.145 64.2614C431.394 64.2614 430.744 64.4478 430.195 64.8207C429.652 65.1882 429.234 65.6676 428.941 66.2589C428.648 66.8501 428.502 67.484 428.502 68.1605V69.2472C428.502 70.174 428.661 70.9597 428.981 71.6042C429.306 72.2434 429.756 72.7308 430.331 73.0664C430.907 73.3967 431.575 73.5618 432.337 73.5618C432.832 73.5618 433.28 73.4925 433.679 73.354C434.084 73.2102 434.433 72.9972 434.726 72.7148C435.019 72.4272 435.245 72.0703 435.405 71.6442L437.227 72.1555C437.035 72.7734 436.713 73.3168 436.26 73.7855C435.807 74.2489 435.248 74.6112 434.582 74.8722C433.916 75.1278 433.168 75.2557 432.337 75.2557ZM440.287 62.7273H442.173V75.8949C442.173 76.6513 442.042 77.3065 441.781 77.8604C441.525 78.4144 441.136 78.8432 440.614 79.1468C440.098 79.4505 439.445 79.6023 438.657 79.6023C438.593 79.6023 438.529 79.6023 438.465 79.6023C438.401 79.6023 438.337 79.6023 438.273 79.6023V77.8445C438.337 77.8445 438.396 77.8445 438.449 77.8445C438.502 77.8445 438.561 77.8445 438.625 77.8445C439.2 77.8445 439.621 77.674 439.887 77.3331C440.154 76.9975 440.287 76.5181 440.287 75.8949V62.7273ZM441.214 60.6818C440.846 60.6818 440.529 60.5566 440.263 60.3063C440.002 60.0559 439.871 59.755 439.871 59.4034C439.871 59.0518 440.002 58.7509 440.263 58.5005C440.529 58.2502 440.846 58.125 441.214 58.125C441.581 58.125 441.896 58.2502 442.157 58.5005C442.423 58.7509 442.556 59.0518 442.556 59.4034C442.556 59.755 442.423 60.0559 442.157 60.3063C441.896 60.5566 441.581 60.6818 441.214 60.6818ZM450.772 75.2557C449.589 75.2557 448.569 74.9947 447.712 74.4727C446.859 73.9453 446.202 73.2102 445.738 72.2674C445.28 71.3192 445.051 70.2166 445.051 68.9595C445.051 67.7024 445.28 66.5945 445.738 65.6357C446.202 64.6715 446.846 63.9205 447.672 63.3825C448.503 62.8391 449.472 62.5675 450.58 62.5675C451.219 62.5675 451.85 62.674 452.474 62.8871C453.097 63.1001 453.664 63.4464 454.176 63.9258C454.687 64.3999 455.094 65.0284 455.398 65.8114C455.702 66.5945 455.854 67.5586 455.854 68.7038V69.5028H446.393V67.8729H453.936C453.936 67.1804 453.797 66.5625 453.52 66.0192C453.249 65.4759 452.86 65.0471 452.354 64.7328C451.853 64.4185 451.262 64.2614 450.58 64.2614C449.829 64.2614 449.179 64.4478 448.631 64.8207C448.087 65.1882 447.669 65.6676 447.376 66.2589C447.083 66.8501 446.937 67.484 446.937 68.1605V69.2472C446.937 70.174 447.096 70.9597 447.416 71.6042C447.741 72.2434 448.191 72.7308 448.766 73.0664C449.342 73.3967 450.01 73.5618 450.772 73.5618C451.267 73.5618 451.715 73.4925 452.114 73.354C452.519 73.2102 452.868 72.9972 453.161 72.7148C453.454 72.4272 453.68 72.0703 453.84 71.6442L455.662 72.1555C455.47 72.7734 455.148 73.3168 454.695 73.7855C454.242 74.2489 453.683 74.6112 453.017 74.8722C452.351 75.1278 451.603 75.2557 450.772 75.2557ZM464.059 62.7273V64.3253H457.699V62.7273H464.059ZM459.553 59.7869H461.439V71.4844C461.439 72.017 461.516 72.4165 461.67 72.6829C461.83 72.9439 462.032 73.1197 462.278 73.2102C462.528 73.2955 462.792 73.3381 463.069 73.3381C463.276 73.3381 463.447 73.3274 463.58 73.3061C463.713 73.2795 463.82 73.2582 463.9 73.2422L464.283 74.9361C464.155 74.984 463.977 75.032 463.748 75.0799C463.519 75.1332 463.228 75.1598 462.877 75.1598C462.344 75.1598 461.822 75.0453 461.311 74.8162C460.805 74.5872 460.384 74.2383 460.048 73.7695C459.718 73.3008 459.553 72.7095 459.553 71.9957V59.7869ZM468.781 67.6172V75H466.896V62.7273H468.718V64.6449H468.877C469.165 64.0217 469.602 63.521 470.188 63.1428C470.774 62.7592 471.53 62.5675 472.457 62.5675C473.288 62.5675 474.015 62.7379 474.638 63.0788C475.261 63.4144 475.746 63.9258 476.092 64.6129C476.439 65.2947 476.612 66.1577 476.612 67.2017V75H474.726V67.3295C474.726 66.3654 474.476 65.6143 473.975 65.0763C473.474 64.533 472.787 64.2614 471.914 64.2614C471.312 64.2614 470.774 64.3919 470.3 64.6529C469.831 64.9139 469.461 65.2947 469.189 65.7955C468.917 66.2962 468.781 66.9034 468.781 67.6172ZM485.043 75.2557C483.935 75.2557 482.963 74.992 482.127 74.4647C481.296 73.9373 480.646 73.1996 480.177 72.2514C479.714 71.3033 479.482 70.1953 479.482 68.9276C479.482 67.6491 479.714 66.5332 480.177 65.5797C480.646 64.6262 481.296 63.8858 482.127 63.3585C482.963 62.8311 483.935 62.5675 485.043 62.5675C486.151 62.5675 487.121 62.8311 487.952 63.3585C488.788 63.8858 489.438 64.6262 489.901 65.5797C490.37 66.5332 490.604 67.6491 490.604 68.9276C490.604 70.1953 490.37 71.3033 489.901 72.2514C489.438 73.1996 488.788 73.9373 487.952 74.4647C487.121 74.992 486.151 75.2557 485.043 75.2557ZM485.043 73.5618C485.885 73.5618 486.577 73.3461 487.121 72.9146C487.664 72.4831 488.066 71.9158 488.327 71.2127C488.588 70.5096 488.719 69.7479 488.719 68.9276C488.719 68.1072 488.588 67.3429 488.327 66.6344C488.066 65.926 487.664 65.3533 487.121 64.9165C486.577 64.4798 485.885 64.2614 485.043 64.2614C484.202 64.2614 483.509 64.4798 482.966 64.9165C482.422 65.3533 482.02 65.926 481.759 66.6344C481.498 67.3429 481.368 68.1072 481.368 68.9276C481.368 69.7479 481.498 70.5096 481.759 71.2127C482.02 71.9158 482.422 72.4831 482.966 72.9146C483.509 73.3461 484.202 73.5618 485.043 73.5618ZM502.176 65.4759L500.482 65.9553C500.375 65.6729 500.218 65.3986 500.011 65.1323C499.808 64.8606 499.531 64.6369 499.18 64.4611C498.828 64.2853 498.378 64.1974 497.829 64.1974C497.078 64.1974 496.452 64.3706 495.952 64.7168C495.456 65.0577 495.209 65.4918 495.209 66.0192C495.209 66.4879 495.379 66.8581 495.72 67.1298C496.061 67.4015 496.593 67.6278 497.318 67.8089L499.14 68.2564C500.237 68.5227 501.055 68.9302 501.593 69.4789C502.131 70.0222 502.4 70.7227 502.4 71.5803C502.4 72.2834 502.197 72.9119 501.792 73.4659C501.393 74.0199 500.834 74.4567 500.114 74.7763C499.395 75.0959 498.559 75.2557 497.606 75.2557C496.354 75.2557 495.318 74.984 494.497 74.4407C493.677 73.8974 493.158 73.1037 492.939 72.0597L494.729 71.6122C494.9 72.2727 495.222 72.7681 495.696 73.0984C496.175 73.4286 496.801 73.5938 497.574 73.5938C498.453 73.5938 499.15 73.4073 499.667 73.0344C500.189 72.6562 500.45 72.2035 500.45 71.6761C500.45 71.25 500.301 70.8931 500.003 70.6055C499.704 70.3125 499.246 70.0941 498.628 69.9503L496.583 69.4709C495.459 69.2045 494.633 68.7917 494.106 68.2324C493.584 67.6678 493.323 66.962 493.323 66.1151C493.323 65.4226 493.517 64.81 493.906 64.2773C494.3 63.7447 494.836 63.3265 495.512 63.0229C496.194 62.7193 496.966 62.5675 497.829 62.5675C499.044 62.5675 499.997 62.8338 500.69 63.3665C501.388 63.8991 501.883 64.6023 502.176 65.4759ZM510.224 75.2557C509.073 75.2557 508.083 74.984 507.252 74.4407C506.421 73.8974 505.781 73.149 505.334 72.1955C504.886 71.242 504.663 70.1527 504.663 68.9276C504.663 67.6811 504.892 66.5811 505.35 65.6277C505.813 64.6689 506.458 63.9205 507.284 63.3825C508.114 62.8391 509.084 62.5675 510.192 62.5675C511.055 62.5675 511.833 62.7273 512.525 63.0469C513.217 63.3665 513.785 63.8139 514.227 64.3892C514.669 64.9645 514.943 65.6357 515.05 66.4027H513.164C513.02 65.8434 512.701 65.348 512.205 64.9165C511.715 64.4798 511.055 64.2614 510.224 64.2614C509.489 64.2614 508.844 64.4531 508.29 64.8366C507.742 65.2148 507.313 65.7502 507.004 66.4426C506.7 67.1298 506.548 67.9368 506.548 68.8636C506.548 69.8118 506.698 70.6374 506.996 71.3406C507.299 72.0437 507.726 72.5897 508.274 72.9785C508.828 73.3674 509.478 73.5618 510.224 73.5618C510.714 73.5618 511.159 73.4766 511.558 73.3061C511.958 73.1357 512.296 72.8906 512.573 72.571C512.85 72.2514 513.047 71.8679 513.164 71.4205H515.05C514.943 72.1449 514.68 72.7974 514.259 73.378C513.843 73.9533 513.292 74.4114 512.605 74.7523C511.923 75.0879 511.129 75.2557 510.224 75.2557ZM517.806 75V62.7273H519.692V75H517.806ZM518.765 60.6818C518.398 60.6818 518.081 60.5566 517.814 60.3063C517.553 60.0559 517.423 59.755 517.423 59.4034C517.423 59.0518 517.553 58.7509 517.814 58.5005C518.081 58.2502 518.398 58.125 518.765 58.125C519.133 58.125 519.447 58.2502 519.708 58.5005C519.974 58.7509 520.108 59.0518 520.108 59.4034C520.108 59.755 519.974 60.0559 519.708 60.3063C519.447 60.5566 519.133 60.6818 518.765 60.6818Z" fill="#191B1C"/>
</svg>
