<svg width="1440" height="133" viewBox="0 0 1440 133" fill="none" xmlns="http://www.w3.org/2000/svg">
<circle cx="149.5" cy="66.5" r="66.5" fill="#61D1AD"/>
<rect x="-1" y="38" width="1442" height="57" fill="#61D1AD"/>
<path fill-rule="evenodd" clip-rule="evenodd" d="M131.6 48.6V44C131.6 40.34 133.054 36.8299 135.642 34.2419C138.23 31.6539 141.74 30.2 145.4 30.2H154.6C158.26 30.2 161.77 31.6539 164.358 34.2419C166.946 36.8299 168.4 40.34 168.4 44V48.6H177.6C180.04 48.6 182.38 49.5693 184.105 51.2946C185.831 53.02 186.8 55.36 186.8 57.8V74.222C175.022 78.5862 162.56 80.8138 150 80.8C137.44 80.814 124.978 78.5864 113.2 74.222V57.8C113.2 55.36 114.169 53.02 115.895 51.2946C117.62 49.5693 119.96 48.6 122.4 48.6H131.6ZM140.8 44C140.8 42.78 141.285 41.61 142.147 40.7473C143.01 39.8847 144.18 39.4 145.4 39.4H154.6C155.82 39.4 156.99 39.8847 157.853 40.7473C158.715 41.61 159.2 42.78 159.2 44V48.6H140.8V44ZM145.4 67C145.4 65.78 145.885 64.61 146.747 63.7473C147.61 62.8847 148.78 62.4 150 62.4H150.046C151.266 62.4 152.436 62.8847 153.299 63.7473C154.161 64.61 154.646 65.78 154.646 67C154.646 68.22 154.161 69.39 153.299 70.2527C152.436 71.1154 151.266 71.6 150.046 71.6H150C148.78 71.6 147.61 71.1154 146.747 70.2527C145.885 69.39 145.4 68.22 145.4 67Z" fill="#191B1C"/>
<path d="M113.2 83.9832V94.6C113.2 97.04 114.169 99.3801 115.895 101.105C117.62 102.831 119.96 103.8 122.4 103.8H177.6C180.04 103.8 182.38 102.831 184.105 101.105C185.831 99.3801 186.8 97.04 186.8 94.6V83.9832C174.943 87.9795 162.512 90.0119 150 90C137.138 90 124.76 87.884 113.2 83.9832Z" fill="#191B1C"/>
<path d="M223.031 74H217.982V57.6364H223.255C224.842 57.6364 226.201 57.964 227.33 58.6191C228.459 59.269 229.325 60.2038 229.927 61.4237C230.529 62.6381 230.83 64.0923 230.83 65.7862C230.83 67.4908 230.526 68.9583 229.919 70.1887C229.311 71.4139 228.427 72.3567 227.266 73.0172C226.105 73.6724 224.693 74 223.031 74ZM219.963 72.2422H222.903C224.256 72.2422 225.378 71.9812 226.267 71.4592C227.157 70.9371 227.82 70.1941 228.257 69.2299C228.694 68.2658 228.912 67.1179 228.912 65.7862C228.912 64.4652 228.696 63.3279 228.265 62.3745C227.833 61.4157 227.189 60.6806 226.331 60.1692C225.474 59.6525 224.406 59.3942 223.127 59.3942H219.963V72.2422ZM238.884 74.2557C237.776 74.2557 236.803 73.992 235.967 73.4647C235.136 72.9373 234.486 72.1996 234.018 71.2514C233.554 70.3033 233.322 69.1953 233.322 67.9276C233.322 66.6491 233.554 65.5332 234.018 64.5797C234.486 63.6262 235.136 62.8858 235.967 62.3585C236.803 61.8311 237.776 61.5675 238.884 61.5675C239.991 61.5675 240.961 61.8311 241.792 62.3585C242.628 62.8858 243.278 63.6262 243.741 64.5797C244.21 65.5332 244.445 66.6491 244.445 67.9276C244.445 69.1953 244.21 70.3033 243.741 71.2514C243.278 72.1996 242.628 72.9373 241.792 73.4647C240.961 73.992 239.991 74.2557 238.884 74.2557ZM238.884 72.5618C239.725 72.5618 240.418 72.3461 240.961 71.9146C241.504 71.4831 241.906 70.9158 242.167 70.2127C242.428 69.5096 242.559 68.7479 242.559 67.9276C242.559 67.1072 242.428 66.3429 242.167 65.6344C241.906 64.926 241.504 64.3533 240.961 63.9165C240.418 63.4798 239.725 63.2614 238.884 63.2614C238.042 63.2614 237.349 63.4798 236.806 63.9165C236.263 64.3533 235.861 64.926 235.6 65.6344C235.339 66.3429 235.208 67.1072 235.208 67.9276C235.208 68.7479 235.339 69.5096 235.6 70.2127C235.861 70.9158 236.263 71.4831 236.806 71.9146C237.349 72.3461 238.042 72.5618 238.884 72.5618ZM256.016 64.4759L254.322 64.9553C254.216 64.6729 254.059 64.3986 253.851 64.1323C253.648 63.8606 253.371 63.6369 253.02 63.4611C252.668 63.2853 252.218 63.1974 251.67 63.1974C250.919 63.1974 250.293 63.3706 249.792 63.7168C249.297 64.0577 249.049 64.4918 249.049 65.0192C249.049 65.4879 249.219 65.8581 249.56 66.1298C249.901 66.4015 250.434 66.6278 251.158 66.8089L252.98 67.2564C254.077 67.5227 254.895 67.9302 255.433 68.4789C255.971 69.0222 256.24 69.7227 256.24 70.5803C256.24 71.2834 256.038 71.9119 255.633 72.4659C255.233 73.0199 254.674 73.4567 253.955 73.7763C253.236 74.0959 252.399 74.2557 251.446 74.2557C250.194 74.2557 249.158 73.984 248.338 73.4407C247.517 72.8974 246.998 72.1037 246.78 71.0597L248.569 70.6122C248.74 71.2727 249.062 71.7681 249.536 72.0984C250.016 72.4286 250.642 72.5938 251.414 72.5938C252.293 72.5938 252.991 72.4073 253.507 72.0344C254.029 71.6562 254.29 71.2035 254.29 70.6761C254.29 70.25 254.141 69.8931 253.843 69.6055C253.545 69.3125 253.087 69.0941 252.469 68.9503L250.423 68.4709C249.299 68.2045 248.474 67.7917 247.946 67.2324C247.424 66.6678 247.163 65.962 247.163 65.1151C247.163 64.4226 247.358 63.81 247.746 63.2773C248.141 62.7447 248.676 62.3265 249.352 62.0229C250.034 61.7193 250.807 61.5675 251.67 61.5675C252.884 61.5675 253.838 61.8338 254.53 62.3665C255.228 62.8991 255.723 63.6023 256.016 64.4759ZM250.807 60.0653L252.756 56.358H254.962L252.469 60.0653H250.807ZM261.859 74L258.12 61.7273H260.101L262.754 71.1236H262.882L265.502 61.7273H267.516L270.105 71.0916H270.233L272.885 61.7273H274.867L271.127 74H269.274L266.589 64.5717H266.397L263.713 74H261.859ZM277.36 74V61.7273H279.245V74H277.36ZM278.318 59.6818C277.951 59.6818 277.634 59.5566 277.368 59.3063C277.107 59.0559 276.976 58.755 276.976 58.4034C276.976 58.0518 277.107 57.7509 277.368 57.5005C277.634 57.2502 277.951 57.125 278.318 57.125C278.686 57.125 279 57.2502 279.261 57.5005C279.528 57.7509 279.661 58.0518 279.661 58.4034C279.661 58.755 279.528 59.0559 279.261 59.3063C279 59.5566 278.686 59.6818 278.318 59.6818ZM286.311 74.2876C285.533 74.2876 284.827 74.1412 284.193 73.8482C283.559 73.5499 283.056 73.1211 282.683 72.5618C282.31 71.9972 282.124 71.3153 282.124 70.5163C282.124 69.8132 282.262 69.2433 282.539 68.8065C282.816 68.3643 283.186 68.0181 283.65 67.7678C284.113 67.5174 284.625 67.331 285.184 67.2085C285.749 67.0806 286.316 66.9794 286.886 66.9048C287.632 66.8089 288.236 66.737 288.7 66.6891C289.168 66.6358 289.509 66.5479 289.722 66.4254C289.941 66.3029 290.05 66.0898 290.05 65.7862V65.7223C290.05 64.9339 289.834 64.3214 289.403 63.8846C288.977 63.4478 288.329 63.2294 287.461 63.2294C286.561 63.2294 285.855 63.4265 285.344 63.8207C284.832 64.2148 284.473 64.6357 284.265 65.0831L282.475 64.4439C282.795 63.6982 283.221 63.1175 283.754 62.7021C284.292 62.2812 284.878 61.9883 285.511 61.8232C286.151 61.6527 286.779 61.5675 287.397 61.5675C287.791 61.5675 288.244 61.6154 288.755 61.7113C289.272 61.8018 289.77 61.9909 290.25 62.2786C290.734 62.5662 291.136 63.0004 291.456 63.581C291.776 64.1616 291.936 64.9393 291.936 65.9141V74H290.05V72.3381H289.954C289.826 72.6044 289.613 72.8894 289.315 73.193C289.016 73.4966 288.62 73.755 288.124 73.968C287.629 74.1811 287.024 74.2876 286.311 74.2876ZM286.598 72.5938C287.344 72.5938 287.972 72.4473 288.484 72.1543C289 71.8613 289.389 71.4831 289.65 71.0197C289.917 70.5563 290.05 70.0689 290.05 69.5575V67.8317C289.97 67.9276 289.794 68.0154 289.523 68.0953C289.256 68.1699 288.947 68.2365 288.596 68.2951C288.249 68.3484 287.911 68.3963 287.581 68.4389C287.256 68.4762 286.992 68.5082 286.79 68.5348C286.3 68.5987 285.842 68.7026 285.416 68.8464C284.995 68.9849 284.654 69.1953 284.393 69.4776C284.137 69.7546 284.009 70.1328 284.009 70.6122C284.009 71.2674 284.252 71.7628 284.736 72.0984C285.227 72.4286 285.847 72.5938 286.598 72.5938ZM300.011 74.2557C298.989 74.2557 298.086 73.9973 297.303 73.4806C296.52 72.9586 295.907 72.2235 295.465 71.2754C295.023 70.3219 294.802 69.1953 294.802 67.8956C294.802 66.6065 295.023 65.4879 295.465 64.5398C295.907 63.5916 296.522 62.8592 297.311 62.3425C298.099 61.8258 299.01 61.5675 300.043 61.5675C300.842 61.5675 301.474 61.7006 301.937 61.967C302.406 62.228 302.763 62.5263 303.008 62.8619C303.258 63.1921 303.453 63.4638 303.591 63.6768H303.751V57.6364H305.636V74H303.815V72.1143H303.591C303.453 72.3381 303.255 72.6204 303 72.9613C302.744 73.2969 302.379 73.5978 301.905 73.8642C301.431 74.1252 300.8 74.2557 300.011 74.2557ZM300.267 72.5618C301.024 72.5618 301.663 72.3647 302.185 71.9705C302.707 71.571 303.104 71.0197 303.375 70.3166C303.647 69.6081 303.783 68.7905 303.783 67.8636C303.783 66.9474 303.65 66.1458 303.383 65.4586C303.117 64.7662 302.723 64.2282 302.201 63.8446C301.679 63.4558 301.034 63.2614 300.267 63.2614C299.468 63.2614 298.802 63.4664 298.27 63.8766C297.742 64.2814 297.345 64.8327 297.079 65.5305C296.818 66.223 296.688 67.0007 296.688 67.8636C296.688 68.7372 296.821 69.5309 297.087 70.2447C297.359 70.9531 297.758 71.5178 298.286 71.9386C298.818 72.354 299.479 72.5618 300.267 72.5618ZM314.338 74.2557C313.187 74.2557 312.196 73.984 311.365 73.4407C310.534 72.8974 309.895 72.149 309.448 71.1955C309 70.242 308.777 69.1527 308.777 67.9276C308.777 66.6811 309.006 65.5811 309.464 64.6277C309.927 63.6689 310.572 62.9205 311.397 62.3825C312.228 61.8391 313.198 61.5675 314.306 61.5675C315.169 61.5675 315.946 61.7273 316.639 62.0469C317.331 62.3665 317.899 62.8139 318.341 63.3892C318.783 63.9645 319.057 64.6357 319.164 65.4027H317.278C317.134 64.8434 316.815 64.348 316.319 63.9165C315.829 63.4798 315.169 63.2614 314.338 63.2614C313.603 63.2614 312.958 63.4531 312.404 63.8366C311.855 64.2148 311.427 64.7502 311.118 65.4426C310.814 66.1298 310.662 66.9368 310.662 67.8636C310.662 68.8118 310.811 69.6374 311.11 70.3406C311.413 71.0437 311.839 71.5897 312.388 71.9785C312.942 72.3674 313.592 72.5618 314.338 72.5618C314.828 72.5618 315.272 72.4766 315.672 72.3061C316.071 72.1357 316.41 71.8906 316.687 71.571C316.964 71.2514 317.161 70.8679 317.278 70.4205H319.164C319.057 71.1449 318.793 71.7974 318.373 72.378C317.957 72.9533 317.406 73.4114 316.719 73.7523C316.037 74.0879 315.243 74.2557 314.338 74.2557ZM321.569 74V72.5618L328.536 63.6129V63.4851H321.792V61.7273H330.965V63.2294L324.189 72.1143V72.2422H331.189V74H321.569ZM338.887 74.2557C337.705 74.2557 336.684 73.9947 335.827 73.4727C334.975 72.9453 334.317 72.2102 333.853 71.2674C333.395 70.3192 333.166 69.2166 333.166 67.9595C333.166 66.7024 333.395 65.5945 333.853 64.6357C334.317 63.6715 334.961 62.9205 335.787 62.3825C336.618 61.8391 337.587 61.5675 338.695 61.5675C339.335 61.5675 339.966 61.674 340.589 61.8871C341.212 62.1001 341.779 62.4464 342.291 62.9258C342.802 63.3999 343.21 64.0284 343.513 64.8114C343.817 65.5945 343.969 66.5586 343.969 67.7038V68.5028H334.509V66.8729H342.051C342.051 66.1804 341.913 65.5625 341.636 65.0192C341.364 64.4759 340.975 64.0471 340.469 63.7328C339.968 63.4185 339.377 63.2614 338.695 63.2614C337.944 63.2614 337.294 63.4478 336.746 63.8207C336.202 64.1882 335.784 64.6676 335.491 65.2589C335.198 65.8501 335.052 66.484 335.052 67.1605V68.2472C335.052 69.174 335.212 69.9597 335.531 70.6042C335.856 71.2434 336.306 71.7308 336.882 72.0664C337.457 72.3967 338.125 72.5618 338.887 72.5618C339.382 72.5618 339.83 72.4925 340.229 72.354C340.634 72.2102 340.983 71.9972 341.276 71.7148C341.569 71.4272 341.795 71.0703 341.955 70.6442L343.777 71.1555C343.585 71.7734 343.263 72.3168 342.81 72.7855C342.357 73.2489 341.798 73.6112 341.132 73.8722C340.466 74.1278 339.718 74.2557 338.887 74.2557ZM348.723 66.6172V74H346.837V61.7273H348.659V63.6449H348.819C349.106 63.0217 349.543 62.521 350.129 62.1428C350.715 61.7592 351.471 61.5675 352.398 61.5675C353.229 61.5675 353.956 61.7379 354.58 62.0788C355.203 62.4144 355.688 62.9258 356.034 63.6129C356.38 64.2947 356.553 65.1577 356.553 66.2017V74H354.667V66.3295C354.667 65.3654 354.417 64.6143 353.916 64.0763C353.416 63.533 352.729 63.2614 351.855 63.2614C351.253 63.2614 350.715 63.3919 350.241 63.6529C349.772 63.9139 349.402 64.2947 349.13 64.7955C348.859 65.2962 348.723 65.9034 348.723 66.6172ZM359.999 74V61.7273H361.884V74H359.999ZM360.958 59.6818C360.59 59.6818 360.273 59.5566 360.007 59.3063C359.746 59.0559 359.615 58.755 359.615 58.4034C359.615 58.0518 359.746 57.7509 360.007 57.5005C360.273 57.2502 360.59 57.125 360.958 57.125C361.325 57.125 361.639 57.2502 361.9 57.5005C362.167 57.7509 362.3 58.0518 362.3 58.4034C362.3 58.755 362.167 59.0559 361.9 59.3063C361.639 59.5566 361.325 59.6818 360.958 59.6818ZM370.484 74.2557C369.301 74.2557 368.281 73.9947 367.424 73.4727C366.571 72.9453 365.913 72.2102 365.45 71.2674C364.992 70.3192 364.763 69.2166 364.763 67.9595C364.763 66.7024 364.992 65.5945 365.45 64.6357C365.913 63.6715 366.558 62.9205 367.384 62.3825C368.215 61.8391 369.184 61.5675 370.292 61.5675C370.931 61.5675 371.562 61.674 372.186 61.8871C372.809 62.1001 373.376 62.4464 373.888 62.9258C374.399 63.3999 374.806 64.0284 375.11 64.8114C375.414 65.5945 375.565 66.5586 375.565 67.7038V68.5028H366.105V66.8729H373.648C373.648 66.1804 373.509 65.5625 373.232 65.0192C372.961 64.4759 372.572 64.0471 372.066 63.7328C371.565 63.4185 370.974 63.2614 370.292 63.2614C369.541 63.2614 368.891 63.4478 368.342 63.8207C367.799 64.1882 367.381 64.6676 367.088 65.2589C366.795 65.8501 366.649 66.484 366.649 67.1605V68.2472C366.649 69.174 366.808 69.9597 367.128 70.6042C367.453 71.2434 367.903 71.7308 368.478 72.0664C369.054 72.3967 369.722 72.5618 370.484 72.5618C370.979 72.5618 371.427 72.4925 371.826 72.354C372.231 72.2102 372.58 71.9972 372.873 71.7148C373.166 71.4272 373.392 71.0703 373.552 70.6442L375.374 71.1555C375.182 71.7734 374.86 72.3168 374.407 72.7855C373.954 73.2489 373.395 73.6112 372.729 73.8722C372.063 74.1278 371.315 74.2557 370.484 74.2557ZM384.762 74V61.7273H386.648V74H384.762ZM385.721 59.6818C385.353 59.6818 385.036 59.5566 384.77 59.3063C384.509 59.0559 384.378 58.755 384.378 58.4034C384.378 58.0518 384.509 57.7509 384.77 57.5005C385.036 57.2502 385.353 57.125 385.721 57.125C386.088 57.125 386.403 57.2502 386.664 57.5005C386.93 57.7509 387.063 58.0518 387.063 58.4034C387.063 58.755 386.93 59.0559 386.664 59.3063C386.403 59.5566 386.088 59.6818 385.721 59.6818ZM396.078 74V72.5618L403.045 63.6129V63.4851H396.302V61.7273H405.474V63.2294L398.699 72.1143V72.2422H405.698V74H396.078ZM412.214 74.2876C411.436 74.2876 410.73 74.1412 410.096 73.8482C409.463 73.5499 408.959 73.1211 408.586 72.5618C408.213 71.9972 408.027 71.3153 408.027 70.5163C408.027 69.8132 408.166 69.2433 408.443 68.8065C408.72 68.3643 409.09 68.0181 409.553 67.7678C410.017 67.5174 410.528 67.331 411.087 67.2085C411.652 67.0806 412.219 66.9794 412.789 66.9048C413.535 66.8089 414.139 66.737 414.603 66.6891C415.072 66.6358 415.413 66.5479 415.626 66.4254C415.844 66.3029 415.953 66.0898 415.953 65.7862V65.7223C415.953 64.9339 415.737 64.3214 415.306 63.8846C414.88 63.4478 414.233 63.2294 413.364 63.2294C412.464 63.2294 411.758 63.4265 411.247 63.8207C410.736 64.2148 410.376 64.6357 410.168 65.0831L408.379 64.4439C408.698 63.6982 409.124 63.1175 409.657 62.7021C410.195 62.2812 410.781 61.9883 411.415 61.8232C412.054 61.6527 412.683 61.5675 413.3 61.5675C413.695 61.5675 414.147 61.6154 414.659 61.7113C415.175 61.8018 415.674 61.9909 416.153 62.2786C416.638 62.5662 417.04 63.0004 417.359 63.581C417.679 64.1616 417.839 64.9393 417.839 65.9141V74H415.953V72.3381H415.857C415.729 72.6044 415.516 72.8894 415.218 73.193C414.92 73.4966 414.523 73.755 414.028 73.968C413.532 74.1811 412.928 74.2876 412.214 74.2876ZM412.501 72.5938C413.247 72.5938 413.876 72.4473 414.387 72.1543C414.904 71.8613 415.293 71.4831 415.554 71.0197C415.82 70.5563 415.953 70.0689 415.953 69.5575V67.8317C415.873 67.9276 415.697 68.0154 415.426 68.0953C415.159 68.1699 414.851 68.2365 414.499 68.2951C414.153 68.3484 413.814 68.3963 413.484 68.4389C413.159 68.4762 412.896 68.5082 412.693 68.5348C412.203 68.5987 411.745 68.7026 411.319 68.8464C410.898 68.9849 410.557 69.1953 410.296 69.4776C410.041 69.7546 409.913 70.1328 409.913 70.6122C409.913 71.2674 410.155 71.7628 410.64 72.0984C411.13 72.4286 411.75 72.5938 412.501 72.5938ZM421.281 74V61.7273H423.166V74H421.281ZM422.239 59.6818C421.872 59.6818 421.555 59.5566 421.289 59.3063C421.028 59.0559 420.897 58.755 420.897 58.4034C420.897 58.0518 421.028 57.7509 421.289 57.5005C421.555 57.2502 421.872 57.125 422.239 57.125C422.607 57.125 422.921 57.2502 423.182 57.5005C423.449 57.7509 423.582 58.0518 423.582 58.4034C423.582 58.755 423.449 59.0559 423.182 59.3063C422.921 59.5566 422.607 59.6818 422.239 59.6818ZM428.506 66.6172V74H426.62V61.7273H428.442V63.6449H428.601C428.889 63.0217 429.326 62.521 429.912 62.1428C430.498 61.7592 431.254 61.5675 432.181 61.5675C433.012 61.5675 433.739 61.7379 434.362 62.0788C434.985 62.4144 435.47 62.9258 435.816 63.6129C436.163 64.2947 436.336 65.1577 436.336 66.2017V74H434.45V66.3295C434.45 65.3654 434.2 64.6143 433.699 64.0763C433.198 63.533 432.511 63.2614 431.638 63.2614C431.036 63.2614 430.498 63.3919 430.024 63.6529C429.555 63.9139 429.185 64.2947 428.913 64.7955C428.641 65.2962 428.506 65.9034 428.506 66.6172ZM445.119 61.7273V63.3253H438.759V61.7273H445.119ZM440.612 58.7869H442.498V70.4844C442.498 71.017 442.575 71.4165 442.73 71.6829C442.89 71.9439 443.092 72.1197 443.337 72.2102C443.587 72.2955 443.851 72.3381 444.128 72.3381C444.336 72.3381 444.506 72.3274 444.639 72.3061C444.773 72.2795 444.879 72.2582 444.959 72.2422L445.343 73.9361C445.215 73.984 445.036 74.032 444.807 74.0799C444.578 74.1332 444.288 74.1598 443.936 74.1598C443.404 74.1598 442.882 74.0453 442.37 73.8162C441.864 73.5872 441.443 73.2383 441.108 72.7695C440.778 72.3008 440.612 71.7095 440.612 70.9957V58.7869ZM452.969 74.2557C451.787 74.2557 450.767 73.9947 449.909 73.4727C449.057 72.9453 448.399 72.2102 447.935 71.2674C447.477 70.3192 447.248 69.2166 447.248 67.9595C447.248 66.7024 447.477 65.5945 447.935 64.6357C448.399 63.6715 449.043 62.9205 449.869 62.3825C450.7 61.8391 451.669 61.5675 452.777 61.5675C453.417 61.5675 454.048 61.674 454.671 61.8871C455.294 62.1001 455.862 62.4464 456.373 62.9258C456.884 63.3999 457.292 64.0284 457.595 64.8114C457.899 65.5945 458.051 66.5586 458.051 67.7038V68.5028H448.591V66.8729H456.133C456.133 66.1804 455.995 65.5625 455.718 65.0192C455.446 64.4759 455.057 64.0471 454.551 63.7328C454.05 63.4185 453.459 63.2614 452.777 63.2614C452.026 63.2614 451.376 63.4478 450.828 63.8207C450.284 64.1882 449.866 64.6676 449.573 65.2589C449.28 65.8501 449.134 66.484 449.134 67.1605V68.2472C449.134 69.174 449.294 69.9597 449.613 70.6042C449.938 71.2434 450.388 71.7308 450.964 72.0664C451.539 72.3967 452.207 72.5618 452.969 72.5618C453.464 72.5618 453.912 72.4925 454.311 72.354C454.716 72.2102 455.065 71.9972 455.358 71.7148C455.651 71.4272 455.877 71.0703 456.037 70.6442L457.859 71.1555C457.667 71.7734 457.345 72.3168 456.892 72.7855C456.439 73.2489 455.88 73.6112 455.214 73.8722C454.548 74.1278 453.8 74.2557 452.969 74.2557ZM460.919 74V61.7273H462.741V63.581H462.869C463.093 62.9737 463.497 62.481 464.083 62.1028C464.669 61.7246 465.33 61.5355 466.065 61.5355C466.203 61.5355 466.376 61.5382 466.584 61.5435C466.792 61.5488 466.949 61.5568 467.056 61.5675V63.4851C466.992 63.4691 466.845 63.4451 466.616 63.4132C466.392 63.3759 466.155 63.3572 465.905 63.3572C465.308 63.3572 464.776 63.4824 464.307 63.7328C463.844 63.9778 463.476 64.3187 463.204 64.7555C462.938 65.187 462.805 65.6797 462.805 66.2337V74H460.919ZM474.063 74.2557C472.88 74.2557 471.86 73.9947 471.003 73.4727C470.15 72.9453 469.493 72.2102 469.029 71.2674C468.571 70.3192 468.342 69.2166 468.342 67.9595C468.342 66.7024 468.571 65.5945 469.029 64.6357C469.493 63.6715 470.137 62.9205 470.963 62.3825C471.794 61.8391 472.763 61.5675 473.871 61.5675C474.51 61.5675 475.142 61.674 475.765 61.8871C476.388 62.1001 476.955 62.4464 477.467 62.9258C477.978 63.3999 478.385 64.0284 478.689 64.8114C478.993 65.5945 479.145 66.5586 479.145 67.7038V68.5028H469.684V66.8729H477.227C477.227 66.1804 477.088 65.5625 476.811 65.0192C476.54 64.4759 476.151 64.0471 475.645 63.7328C475.144 63.4185 474.553 63.2614 473.871 63.2614C473.12 63.2614 472.47 63.4478 471.922 63.8207C471.378 64.1882 470.96 64.6676 470.667 65.2589C470.374 65.8501 470.228 66.484 470.228 67.1605V68.2472C470.228 69.174 470.387 69.9597 470.707 70.6042C471.032 71.2434 471.482 71.7308 472.057 72.0664C472.633 72.3967 473.301 72.5618 474.063 72.5618C474.558 72.5618 475.006 72.4925 475.405 72.354C475.81 72.2102 476.159 71.9972 476.452 71.7148C476.745 71.4272 476.971 71.0703 477.131 70.6442L478.953 71.1555C478.761 71.7734 478.439 72.3168 477.986 72.7855C477.533 73.2489 476.974 73.6112 476.308 73.8722C475.642 74.1278 474.894 74.2557 474.063 74.2557ZM490.706 64.4759L489.012 64.9553C488.906 64.6729 488.749 64.3986 488.541 64.1323C488.338 63.8606 488.061 63.6369 487.71 63.4611C487.358 63.2853 486.908 63.1974 486.36 63.1974C485.608 63.1974 484.983 63.3706 484.482 63.7168C483.987 64.0577 483.739 64.4918 483.739 65.0192C483.739 65.4879 483.909 65.8581 484.25 66.1298C484.591 66.4015 485.124 66.6278 485.848 66.8089L487.67 67.2564C488.767 67.5227 489.585 67.9302 490.123 68.4789C490.661 69.0222 490.93 69.7227 490.93 70.5803C490.93 71.2834 490.727 71.9119 490.323 72.4659C489.923 73.0199 489.364 73.4567 488.645 73.7763C487.926 74.0959 487.089 74.2557 486.136 74.2557C484.884 74.2557 483.848 73.984 483.028 73.4407C482.207 72.8974 481.688 72.1037 481.47 71.0597L483.259 70.6122C483.43 71.2727 483.752 71.7681 484.226 72.0984C484.706 72.4286 485.331 72.5938 486.104 72.5938C486.983 72.5938 487.681 72.4073 488.197 72.0344C488.719 71.6562 488.98 71.2035 488.98 70.6761C488.98 70.25 488.831 69.8931 488.533 69.6055C488.235 69.3125 487.776 69.0941 487.159 68.9503L485.113 68.4709C483.989 68.2045 483.164 67.7917 482.636 67.2324C482.114 66.6678 481.853 65.962 481.853 65.1151C481.853 64.4226 482.048 63.81 482.436 63.2773C482.831 62.7447 483.366 62.3265 484.042 62.0229C484.724 61.7193 485.497 61.5675 486.36 61.5675C487.574 61.5675 488.528 61.8338 489.22 62.3665C489.918 62.8991 490.413 63.6023 490.706 64.4759ZM498.754 74.2557C497.646 74.2557 496.674 73.992 495.838 73.4647C495.007 72.9373 494.357 72.1996 493.888 71.2514C493.425 70.3033 493.193 69.1953 493.193 67.9276C493.193 66.6491 493.425 65.5332 493.888 64.5797C494.357 63.6262 495.007 62.8858 495.838 62.3585C496.674 61.8311 497.646 61.5675 498.754 61.5675C499.862 61.5675 500.832 61.8311 501.663 62.3585C502.499 62.8858 503.149 63.6262 503.612 64.5797C504.081 65.5332 504.315 66.6491 504.315 67.9276C504.315 69.1953 504.081 70.3033 503.612 71.2514C503.149 72.1996 502.499 72.9373 501.663 73.4647C500.832 73.992 499.862 74.2557 498.754 74.2557ZM498.754 72.5618C499.596 72.5618 500.288 72.3461 500.832 71.9146C501.375 71.4831 501.777 70.9158 502.038 70.2127C502.299 69.5096 502.43 68.7479 502.43 67.9276C502.43 67.1072 502.299 66.3429 502.038 65.6344C501.777 64.926 501.375 64.3533 500.832 63.9165C500.288 63.4798 499.596 63.2614 498.754 63.2614C497.913 63.2614 497.22 63.4798 496.677 63.9165C496.133 64.3533 495.731 64.926 495.47 65.6344C495.209 66.3429 495.079 67.1072 495.079 67.9276C495.079 68.7479 495.209 69.5096 495.47 70.2127C495.731 70.9158 496.133 71.4831 496.677 71.9146C497.22 72.3461 497.913 72.5618 498.754 72.5618ZM509.557 74L505.817 61.7273H507.799L510.452 71.1236H510.579L513.2 61.7273H515.214L517.802 71.0916H517.93L520.583 61.7273H522.564L518.825 74H516.971L514.287 64.5717H514.095L511.41 74H509.557ZM528.669 74.2876C527.891 74.2876 527.185 74.1412 526.552 73.8482C525.918 73.5499 525.414 73.1211 525.041 72.5618C524.669 71.9972 524.482 71.3153 524.482 70.5163C524.482 69.8132 524.621 69.2433 524.898 68.8065C525.175 68.3643 525.545 68.0181 526.008 67.7678C526.472 67.5174 526.983 67.331 527.542 67.2085C528.107 67.0806 528.674 66.9794 529.244 66.9048C529.99 66.8089 530.595 66.737 531.058 66.6891C531.527 66.6358 531.868 66.5479 532.081 66.4254C532.299 66.3029 532.408 66.0898 532.408 65.7862V65.7223C532.408 64.9339 532.193 64.3214 531.761 63.8846C531.335 63.4478 530.688 63.2294 529.819 63.2294C528.919 63.2294 528.213 63.4265 527.702 63.8207C527.191 64.2148 526.831 64.6357 526.623 65.0831L524.834 64.4439C525.153 63.6982 525.579 63.1175 526.112 62.7021C526.65 62.2812 527.236 61.9883 527.87 61.8232C528.509 61.6527 529.138 61.5675 529.756 61.5675C530.15 61.5675 530.602 61.6154 531.114 61.7113C531.631 61.8018 532.129 61.9909 532.608 62.2786C533.093 62.5662 533.495 63.0004 533.814 63.581C534.134 64.1616 534.294 64.9393 534.294 65.9141V74H532.408V72.3381H532.312C532.185 72.6044 531.971 72.8894 531.673 73.193C531.375 73.4966 530.978 73.755 530.483 73.968C529.987 74.1811 529.383 74.2876 528.669 74.2876ZM528.957 72.5938C529.702 72.5938 530.331 72.4473 530.842 72.1543C531.359 71.8613 531.748 71.4831 532.009 71.0197C532.275 70.5563 532.408 70.0689 532.408 69.5575V67.8317C532.328 67.9276 532.153 68.0154 531.881 68.0953C531.615 68.1699 531.306 68.2365 530.954 68.2951C530.608 68.3484 530.27 68.3963 529.939 68.4389C529.614 68.4762 529.351 68.5082 529.148 68.5348C528.658 68.5987 528.2 68.7026 527.774 68.8464C527.353 68.9849 527.012 69.1953 526.751 69.4776C526.496 69.7546 526.368 70.1328 526.368 70.6122C526.368 71.2674 526.61 71.7628 527.095 72.0984C527.585 72.4286 528.205 72.5938 528.957 72.5938ZM539.621 66.6172V74H537.736V61.7273H539.557V63.6449H539.717C540.005 63.0217 540.442 62.521 541.028 62.1428C541.613 61.7592 542.37 61.5675 543.297 61.5675C544.128 61.5675 544.855 61.7379 545.478 62.0788C546.101 62.4144 546.586 62.9258 546.932 63.6129C547.278 64.2947 547.452 65.1577 547.452 66.2017V74H545.566V66.3295C545.566 65.3654 545.316 64.6143 544.815 64.0763C544.314 63.533 543.627 63.2614 542.753 63.2614C542.151 63.2614 541.613 63.3919 541.139 63.6529C540.671 63.9139 540.3 64.2947 540.029 64.7955C539.757 65.2962 539.621 65.9034 539.621 66.6172ZM550.897 74V61.7273H552.783V74H550.897ZM551.856 59.6818C551.489 59.6818 551.172 59.5566 550.905 59.3063C550.644 59.0559 550.514 58.755 550.514 58.4034C550.514 58.0518 550.644 57.7509 550.905 57.5005C551.172 57.2502 551.489 57.125 551.856 57.125C552.224 57.125 552.538 57.2502 552.799 57.5005C553.065 57.7509 553.198 58.0518 553.198 58.4034C553.198 58.755 553.065 59.0559 552.799 59.3063C552.538 59.5566 552.224 59.6818 551.856 59.6818ZM559.848 74.2876C559.07 74.2876 558.365 74.1412 557.731 73.8482C557.097 73.5499 556.593 73.1211 556.221 72.5618C555.848 71.9972 555.661 71.3153 555.661 70.5163C555.661 69.8132 555.8 69.2433 556.077 68.8065C556.354 68.3643 556.724 68.0181 557.187 67.7678C557.651 67.5174 558.162 67.331 558.722 67.2085C559.286 67.0806 559.853 66.9794 560.423 66.9048C561.169 66.8089 561.774 66.737 562.237 66.6891C562.706 66.6358 563.047 66.5479 563.26 66.4254C563.478 66.3029 563.587 66.0898 563.587 65.7862V65.7223C563.587 64.9339 563.372 64.3214 562.94 63.8846C562.514 63.4478 561.867 63.2294 560.999 63.2294C560.098 63.2294 559.393 63.4265 558.881 63.8207C558.37 64.2148 558.01 64.6357 557.803 65.0831L556.013 64.4439C556.332 63.6982 556.759 63.1175 557.291 62.7021C557.829 62.2812 558.415 61.9883 559.049 61.8232C559.688 61.6527 560.317 61.5675 560.935 61.5675C561.329 61.5675 561.782 61.6154 562.293 61.7113C562.81 61.8018 563.308 61.9909 563.787 62.2786C564.272 62.5662 564.674 63.0004 564.994 63.581C565.313 64.1616 565.473 64.9393 565.473 65.9141V74H563.587V72.3381H563.492C563.364 72.6044 563.151 72.8894 562.852 73.193C562.554 73.4966 562.157 73.755 561.662 73.968C561.166 74.1811 560.562 74.2876 559.848 74.2876ZM560.136 72.5938C560.881 72.5938 561.51 72.4473 562.021 72.1543C562.538 71.8613 562.927 71.4831 563.188 71.0197C563.454 70.5563 563.587 70.0689 563.587 69.5575V67.8317C563.508 67.9276 563.332 68.0154 563.06 68.0953C562.794 68.1699 562.485 68.2365 562.133 68.2951C561.787 68.3484 561.449 68.3963 561.119 68.4389C560.794 68.4762 560.53 68.5082 560.328 68.5348C559.837 68.5987 559.379 68.7026 558.953 68.8464C558.532 68.9849 558.191 69.1953 557.93 69.4776C557.675 69.7546 557.547 70.1328 557.547 70.6122C557.547 71.2674 557.789 71.7628 558.274 72.0984C558.764 72.4286 559.385 72.5938 560.136 72.5938Z" fill="#191B1C"/>
</svg>
