<svg width="1440" height="141" viewBox="0 0 1440 141" fill="none" xmlns="http://www.w3.org/2000/svg">
<g filter="url(#filter0_d_100_205)">
<ellipse cx="143.483" cy="66.5" rx="68.483" ry="66.5" fill="#61D1AD"/>
<rect x="-7" y="38" width="1485" height="57" fill="#61D1AD"/>
<path d="M226.963 58.6364V75H224.982V58.6364H226.963ZM232.566 67.6172V75H230.68V62.7273H232.502V64.6449H232.662C232.95 64.0217 233.386 63.521 233.972 63.1428C234.558 62.7592 235.315 62.5675 236.242 62.5675C237.072 62.5675 237.8 62.7379 238.423 63.0788C239.046 63.4144 239.531 63.9258 239.877 64.6129C240.223 65.2947 240.396 66.1577 240.396 67.2017V75H238.511V67.3295C238.511 66.3654 238.26 65.6143 237.76 65.0763C237.259 64.533 236.572 64.2614 235.698 64.2614C235.096 64.2614 234.558 64.3919 234.084 64.6529C233.615 64.9139 233.245 65.2947 232.974 65.7955C232.702 66.2962 232.566 66.9034 232.566 67.6172ZM245.728 67.6172V75H243.842V62.7273H245.664V64.6449H245.824C246.111 64.0217 246.548 63.521 247.134 63.1428C247.72 62.7592 248.476 62.5675 249.403 62.5675C250.234 62.5675 250.961 62.7379 251.584 63.0788C252.208 63.4144 252.692 63.9258 253.039 64.6129C253.385 65.2947 253.558 66.1577 253.558 67.2017V75H251.672V67.3295C251.672 66.3654 251.422 65.6143 250.921 65.0763C250.421 64.533 249.733 64.2614 248.86 64.2614C248.258 64.2614 247.72 64.3919 247.246 64.6529C246.777 64.9139 246.407 65.2947 246.135 65.7955C245.864 66.2962 245.728 66.9034 245.728 67.6172ZM262.149 75.2557C260.967 75.2557 259.947 74.9947 259.089 74.4727C258.237 73.9453 257.579 73.2102 257.116 72.2674C256.657 71.3192 256.428 70.2166 256.428 68.9595C256.428 67.7024 256.657 66.5945 257.116 65.6357C257.579 64.6715 258.223 63.9205 259.049 63.3825C259.88 62.8391 260.85 62.5675 261.958 62.5675C262.597 62.5675 263.228 62.674 263.851 62.8871C264.474 63.1001 265.042 63.4464 265.553 63.9258C266.064 64.3999 266.472 65.0284 266.776 65.8114C267.079 66.5945 267.231 67.5586 267.231 68.7038V69.5028H257.771V67.8729H265.313C265.313 67.1804 265.175 66.5625 264.898 66.0192C264.626 65.4759 264.237 65.0471 263.731 64.7328C263.231 64.4185 262.639 64.2614 261.958 64.2614C261.206 64.2614 260.557 64.4478 260.008 64.8207C259.465 65.1882 259.046 65.6676 258.754 66.2589C258.461 66.8501 258.314 67.484 258.314 68.1605V69.2472C258.314 70.174 258.474 70.9597 258.793 71.6042C259.118 72.2434 259.568 72.7308 260.144 73.0664C260.719 73.3967 261.388 73.5618 262.149 73.5618C262.645 73.5618 263.092 73.4925 263.492 73.354C263.896 73.2102 264.245 72.9972 264.538 72.7148C264.831 72.4272 265.058 72.0703 265.217 71.6442L267.039 72.1555C266.847 72.7734 266.525 73.3168 266.072 73.7855C265.62 74.2489 265.06 74.6112 264.394 74.8722C263.729 75.1278 262.98 75.2557 262.149 75.2557Z" fill="#191B1C"/>
<path fill-rule="evenodd" clip-rule="evenodd" d="M145 108C155.609 108 165.783 103.786 173.284 96.2843C180.786 88.7828 185 78.6087 185 68C185 57.3913 180.786 47.2172 173.284 39.7157C165.783 32.2143 155.609 28 145 28C134.391 28 124.217 32.2143 116.716 39.7157C109.214 47.2172 105 57.3913 105 68C105 78.6087 109.214 88.7828 116.716 96.2843C124.217 103.786 134.391 108 145 108V108ZM130 63H120V73H130V63ZM170 63H160V73H170V63ZM140 63H150V73H140V63Z" fill="black"/>
</g>
<defs>
<filter id="filter0_d_100_205" x="-11" y="0" width="1493" height="141" filterUnits="userSpaceOnUse" color-interpolation-filters="sRGB">
<feFlood flood-opacity="0" result="BackgroundImageFix"/>
<feColorMatrix in="SourceAlpha" type="matrix" values="0 0 0 0 0 0 0 0 0 0 0 0 0 0 0 0 0 0 127 0" result="hardAlpha"/>
<feOffset dy="4"/>
<feGaussianBlur stdDeviation="2"/>
<feComposite in2="hardAlpha" operator="out"/>
<feColorMatrix type="matrix" values="0 0 0 0 0 0 0 0 0 0 0 0 0 0 0 0 0 0 0.25 0"/>
<feBlend mode="normal" in2="BackgroundImageFix" result="effect1_dropShadow_100_205"/>
<feBlend mode="normal" in="SourceGraphic" in2="effect1_dropShadow_100_205" result="shape"/>
</filter>
</defs>
</svg>
