<svg width="183" height="205" viewBox="0 0 183 205" fill="none" xmlns="http://www.w3.org/2000/svg">
<path d="M0 204.5L5.77215 204.625L2.99412 199.564L0 204.5ZM4.18645 202.772C5.22978 202.197 6.26737 201.623 7.29924 201.05L6.81358 200.175C5.78263 200.748 4.74597 201.322 3.70356 201.897L4.18645 202.772ZM21.1866 193.198C25.9006 190.484 30.4853 187.793 34.9438 185.124L34.4302 184.266C29.9767 186.932 25.397 189.62 20.6877 192.331L21.1866 193.198ZM48.5449 176.808C53.1625 173.922 57.6314 171.062 61.9558 168.227L61.4075 167.391C57.0894 170.222 52.6267 173.078 48.015 175.96L48.5449 176.808ZM75.214 159.301C79.7274 156.178 84.0643 153.084 88.2308 150.019L87.6383 149.214C83.4799 152.273 79.1508 155.361 74.645 158.479L75.214 159.301ZM100.897 140.379C105.231 136.961 109.354 133.577 113.272 130.227L112.622 129.467C108.714 132.808 104.602 136.184 100.278 139.594L100.897 140.379ZM125.136 119.604C129.175 115.807 132.955 112.051 136.487 108.333L135.762 107.644C132.244 111.348 128.478 115.091 124.451 118.875L125.136 119.604ZM147.108 96.3853C150.652 92.1046 153.873 87.871 156.795 83.6795L155.975 83.1076C153.07 87.2754 149.865 91.4871 146.338 95.7477L147.108 96.3853ZM165.286 70.1574C167.997 65.3081 170.322 60.5099 172.297 55.7542L171.373 55.3707C169.414 60.0895 167.106 64.8529 164.413 69.6694L165.286 70.1574ZM177.474 40.6331C178.903 35.36 179.934 30.1312 180.618 24.9345L179.627 24.8039C178.948 29.9575 177.926 35.1426 176.509 40.3716L177.474 40.6331ZM181.688 8.97199C181.702 6.30099 181.637 3.63563 181.499 0.974261L180.501 1.02574C180.637 3.66914 180.702 6.31561 180.688 8.96688L181.688 8.97199ZM0 204.5L11.5447 204.731L5.97279 194.618L0 204.5ZM21.4361 193.631C26.1524 190.916 30.7396 188.223 35.2006 185.553L34.1734 183.837C29.7225 186.501 25.1451 189.188 20.4383 191.898L21.4361 193.631ZM48.8099 177.232C53.4305 174.345 57.9024 171.483 62.23 168.645L61.1334 166.973C56.8184 169.802 52.3587 172.656 47.75 175.536L48.8099 177.232ZM75.4985 159.712C80.0157 156.586 84.3566 153.49 88.5271 150.422L87.342 148.811C83.1877 151.867 78.8625 154.952 74.3605 158.068L75.4985 159.712ZM101.206 140.772C105.546 137.35 109.673 133.962 113.597 130.607L112.297 129.087C108.395 132.424 104.288 135.795 99.968 139.202L101.206 140.772ZM125.478 119.968C129.524 116.165 133.311 112.403 136.85 108.677L135.4 107.3C131.888 110.997 128.129 114.733 124.109 118.511L125.478 119.968ZM147.493 96.7041C151.045 92.4134 154.275 88.1689 157.206 83.9654L155.565 82.8217C152.668 86.9776 149.471 91.1783 145.953 95.4289L147.493 96.7041ZM165.723 70.4014C168.443 65.5357 170.776 60.72 172.759 55.946L170.912 55.1789C168.96 59.8793 166.66 64.6253 163.977 69.4254L165.723 70.4014ZM177.957 40.7638C179.392 35.4687 180.427 30.218 181.114 24.9998L179.131 24.7386C178.455 29.8707 177.437 35.0339 176.027 40.2408L177.957 40.7638ZM182.188 8.97455C182.202 6.29368 182.136 3.61888 181.999 0.948522L180.001 1.05148C180.137 3.6859 180.202 6.32292 180.188 8.96432L182.188 8.97455Z" fill="#61D1AD"/>
</svg>
